<?xml version="1.0" encoding="UTF-8"?>
<svg version="1.1" xmlns="http://www.w3.org/2000/svg" width="1931" height="1261">
<path d="M0 0 C69.3 0 138.6 0 210 0 C210 32.67 210 65.34 210 99 C198.12 99 186.24 99 174 99 C174.33 150.15 174.66 201.3 175 254 C185.71706164 240.22505195 185.71706164 240.22505195 196.375 226.40625 C200.17099643 221.47145464 204.00298039 216.56454869 207.828125 211.65234375 C212.03501405 206.24740586 216.21630709 200.8237636 220.38671875 195.390625 C224.10563117 190.55589375 227.86313531 185.75107667 231.61279297 180.94018555 C235.6489286 175.7550013 239.64579992 170.54145035 243.625 165.3125 C247.68189108 159.9848124 251.7986066 154.71445127 256 149.5 C265.12376651 138.16427497 273.88836851 126.5572248 282.5625 114.875 C283.14628418 114.09350586 283.73006836 113.31201172 284.33154297 112.50683594 C284.88342285 111.75950195 285.43530273 111.01216797 286.00390625 110.2421875 C286.48674072 109.5910498 286.9695752 108.93991211 287.46704102 108.26904297 C289.48140593 105.28743642 291.21475148 102.12418491 293 99 C277.82 99 262.64 99 247 99 C247 66.33 247 33.66 247 0 C311.68 0 376.36 0 443 0 C443 32.67 443 65.34 443 99 C427.16 99.33 411.32 99.66 395 100 C389.67512493 103.54991671 387.86081406 105.11928047 384.5 110.125 C380.5173752 115.92446473 376.34094954 121.52610623 372 127.0625 C371.39808838 127.83150635 370.79617676 128.6005127 370.17602539 129.39282227 C368.99436854 130.90163802 367.81217368 132.41003262 366.62939453 133.91796875 C359.94915696 142.45393909 353.39766303 151.09121229 346.81616211 159.70336914 C342.75190592 165.02055679 338.67390318 170.32691013 334.58984375 175.62890625 C332.68014301 178.11129351 330.77807309 180.59938872 328.87890625 183.08984375 C323.34248847 190.34873914 317.77827814 197.57958009 312.11157227 204.73730469 C307.96157465 210.00130898 303.9507166 215.36680835 299.97045898 220.76000977 C299.49552002 221.39994873 299.02058105 222.0398877 298.53125 222.69921875 C298.11423828 223.26471436 297.69722656 223.83020996 297.26757812 224.4128418 C296 226 296 226 294.27929688 227.39379883 C292.74409976 228.9511709 292.74409976 228.9511709 293.1496582 231.23974609 C294.18380791 234.59665007 295.35135839 237.88469594 296.60546875 241.1640625 C296.87652435 241.8826947 297.14757996 242.6013269 297.42684937 243.34173584 C298.02469207 244.92561724 298.62428215 246.50883988 299.22537231 248.0914917 C300.93148563 252.58408899 302.624709 257.08155306 304.3203125 261.578125 C304.87595634 263.04993729 304.87595634 263.04993729 305.44282532 264.55148315 C308.35517412 272.27137789 311.24117872 280.00087544 314.1171875 287.734375 C314.55754837 288.91838394 314.99790924 290.10239288 315.45161438 291.32228088 C316.35961064 293.7637692 317.2675949 296.20526197 318.17556763 298.64675903 C327.03285898 322.45622309 335.9922551 346.22494958 345.01855469 369.97094727 C350.82070713 385.23754822 356.58702739 400.516978 362.3125 415.8125 C367.89202731 430.71774761 373.49225471 445.61477966 379.125 460.5 C384.14386195 473.76329464 389.14290413 487.03389273 394.12109375 500.3125 C394.38662552 501.02075424 394.65215729 501.72900848 394.92573547 502.45872498 C397.57647419 509.52955131 400.22604626 516.60081381 402.87377548 523.67276764 C403.86344389 526.31582732 404.85360467 528.95870244 405.84376526 531.60157776 C406.55924103 533.51211666 407.27384906 535.42297859 407.98840332 537.3338623 C410.10473502 542.98507122 412.23496984 548.62940104 414.42138672 554.25390625 C414.79061752 555.20712769 415.15984833 556.16034912 415.54026794 557.14245605 C416.20859918 558.86254059 416.8820868 560.58063697 417.56239319 562.29602051 C417.85754318 563.05620483 418.15269318 563.81638916 418.45678711 564.59960938 C418.83461586 565.55740295 418.83461586 565.55740295 419.22007751 566.5345459 C420.40616978 570.28396471 421.14690994 574.16109473 422 578 C428.93 578 435.86 578 443 578 C443 610.01 443 642.02 443 675 C378.32 675 313.64 675 247 675 C247 642.99 247 610.98 247 578 C258.55 578 270.1 578 282 578 C280.35 573.38 278.7 568.76 277 564 C275.63867412 559.68984296 274.30180189 555.3784025 272.99267578 551.05273438 C267.6213959 533.54783924 261.81705494 516.19124429 256.00994635 498.82705116 C254.48423146 494.26268183 252.96207167 489.697127 251.43948364 485.13171387 C248.56414405 476.51184943 245.68575883 467.89300544 242.80619633 459.27455091 C239.55016777 449.5288555 236.29755731 439.78202048 233.04524398 430.03508472 C227.70009781 414.01624394 222.35246728 397.99823455 217.00264716 381.98095417 C212.99728922 369.9887933 208.99546077 357.99546264 205 346 C201.21335812 349.76737064 197.75965066 353.57806126 194.4375 357.75 C193.92662842 358.3896167 193.41575684 359.0292334 192.8894043 359.68823242 C180.00905561 374.61034841 180.00905561 374.61034841 174.84178162 392.5675354 C174.83684364 393.35736986 174.83190566 394.14720431 174.82681805 394.96097314 C174.81139363 397.62192912 174.80306909 400.28286088 174.79467773 402.94384766 C174.78510309 404.8455985 174.77509326 406.7473472 174.76467896 408.64909363 C174.73757897 413.82441628 174.71659703 418.99974811 174.69667697 424.17510271 C174.67484877 429.57902235 174.64744463 434.98291357 174.62062073 440.3868103 C174.57065093 450.62548432 174.52572804 460.86417407 174.48259836 471.10287893 C174.43326257 482.75689404 174.37833091 494.41088065 174.32291877 506.06486821 C174.20903293 530.04322022 174.10294711 554.02159836 174 578 C185.88 578 197.76 578 210 578 C210 610.01 210 642.02 210 675 C140.7 675 71.4 675 0 675 C0 642.99 0 610.98 0 578 C11.22 578 22.44 578 34 578 C34 419.93 34 261.86 34 99 C22.78 99 11.56 99 0 99 C0 66.33 0 33.66 0 0 Z " fill="#006B38" transform="translate(448,273)"/>
<path d="M0 0 C69.63 0 139.26 0 211 0 C211 32.67 211 65.34 211 99 C198.46 99 185.92 99 173 99 C173.33 150.48 173.66 201.96 174 255 C179.64499522 248.72778308 184.83132572 242.79268103 189.6875 236 C194.39273943 229.51566826 199.18190782 223.1175274 204.125 216.8125 C208.48027469 211.2537545 212.7819454 205.66364267 217 200 C221.20133101 194.36072799 225.47978741 188.78892434 229.8125 183.25 C234.78615996 176.88987731 239.67156699 170.47102493 244.5 164 C251.03855978 155.23924557 257.71876758 146.59758303 264.45117188 137.98535156 C267.87548584 133.59592515 271.26400127 129.17898056 274.65039062 124.76025391 C275.63538771 123.47555257 276.62117335 122.19145571 277.60742188 120.90771484 C279.34366494 118.64774125 281.0782395 116.38649522 282.8125 114.125 C283.35205322 113.4230249 283.89160645 112.7210498 284.44750977 111.99780273 C284.96627686 111.32048096 285.48504395 110.64315918 286.01953125 109.9453125 C286.47432861 109.35250488 286.92912598 108.75969727 287.39770508 108.14892578 C289.64574146 105.13396064 291.81407432 102.06029595 294 99 C278.82 99 263.64 99 248 99 C248 66.33 248 33.66 248 0 C312.02 0 376.04 0 442 0 C442 32.67 442 65.34 442 99 C427.15 99.33 412.3 99.66 397 100 C388.1184398 104.4407801 383.78436789 111.1870958 378.17797852 119.16796875 C373.53036086 125.74915368 368.5568024 132.0649224 363.58984375 138.40625 C360.10957501 142.84954685 356.67310199 147.32507645 353.25 151.8125 C352.17578417 153.22005431 351.10156548 154.62760644 350.02734375 156.03515625 C349.26139893 157.03893311 349.26139893 157.03893311 348.47998047 158.06298828 C344.66746461 163.05284325 340.8314782 168.02470368 337 173 C335.75208792 174.62184231 334.50441645 176.24386941 333.25683594 177.8659668 C332.42037317 178.95346589 331.58378504 180.04086858 330.74707031 181.12817383 C328.67419484 183.82202195 326.60296099 186.51710088 324.53515625 189.21484375 C316.1232914 200.18336991 307.67194334 211.11186489 298.77734375 221.6953125 C295.14240305 226.40875209 294.41762608 230.04334873 295 236 C295.83084392 239.27103762 297.01843303 242.3694209 298.2421875 245.51171875 C298.59286789 246.44387207 298.94354828 247.37602539 299.30485535 248.33642578 C300.48265185 251.45824155 301.67892714 254.57264553 302.875 257.6875 C303.72320256 259.92570397 304.57009109 262.16440629 305.41577148 264.40356445 C307.26483631 269.29372436 309.12131023 274.18100774 310.98291016 279.06640625 C314.14956949 287.37988344 317.2855425 295.70482513 320.41796875 304.03125 C320.96672671 305.48965289 321.51549383 306.94805233 322.06427002 308.40644836 C322.89376577 310.61087414 323.72325606 312.81530197 324.55267334 315.01975727 C327.35059534 322.45524152 330.15476288 329.88836664 332.95893097 337.32149696 C338.32310284 351.54125806 343.66995807 365.76740557 349 380 C355.96503001 398.5967764 362.96329743 417.1809124 369.9689064 435.76242828 C378.43224258 458.21082253 386.88765926 480.66212489 395.3125 503.125 C395.74406403 504.275448 396.17562805 505.425896 396.62026978 506.61120605 C400.76937061 517.67403 404.91101771 528.73944437 409.01171875 539.8203125 C409.31628494 540.6428653 409.62085114 541.46541809 409.93464661 542.31289673 C411.29659743 545.99252386 412.65586975 549.67308923 414.0090332 553.35595703 C417.64116326 566.02346511 417.64116326 566.02346511 424 577 C429.94 577.33 435.88 577.66 442 578 C442 610.01 442 642.02 442 675 C377.98 675 313.96 675 248 675 C248 642.99 248 610.98 248 578 C259.22 578 270.44 578 282 578 C276.19858548 559.80889792 270.32230321 541.64388572 264.375 523.5 C264.15746441 522.83604973 263.93992882 522.17209946 263.71580124 521.48802948 C258.25910774 504.83459243 252.76313868 488.19687646 247.0625 471.625 C234.87129265 436.16530005 222.75240722 400.64209803 211.6875 364.8125 C211.43643494 364.00472107 211.18536987 363.19694214 210.92669678 362.36468506 C210.23974734 360.14752076 209.5612503 357.92800059 208.88671875 355.70703125 C208.51764404 354.4950708 208.14856934 353.28311035 207.76831055 352.03442383 C207 349 207 349 207 345 C200.60091757 349.86886707 196.12594258 355.81810562 191.36767578 362.20166016 C189.97531422 364.03245903 188.54210563 365.82189605 187.08984375 367.60546875 C186.60547852 368.20423828 186.12111328 368.80300781 185.62207031 369.41992188 C184.70241373 370.55305899 183.77650723 371.68116888 182.84277344 372.80273438 C181.48414981 374.49106155 180.23857217 376.22154201 179 378 C178.34714256 378.93268991 178.34714256 378.93268991 177.68109608 379.88422203 C172.67986025 388.2732063 173.2914492 397.14668192 173.34057617 406.57666016 C173.33211355 408.45004337 173.32146514 410.32341778 173.30880737 412.19677734 C173.2807547 417.25813087 173.28311608 422.31905922 173.29110122 427.38046694 C173.29423397 432.6789498 173.26916942 437.97729906 173.24714661 443.27572632 C173.20974699 453.29813629 173.19756102 463.32041059 173.1945222 473.34288347 C173.18982696 484.75771552 173.15688862 496.17241203 173.12162435 507.58718419 C173.04974458 531.05814072 173.01690951 554.52893505 173 578 C185.54 578 198.08 578 211 578 C211 610.01 211 642.02 211 675 C141.37 675 71.74 675 0 675 C0 642.99 0 610.98 0 578 C11.88 578 23.76 578 36 578 C36 419.93 36 261.86 36 99 C24.12 99 12.24 99 0 99 C0 66.33 0 33.66 0 0 Z " fill="#006B38" transform="translate(947,273)"/>
<path d="M0 0 C43.56 0 87.12 0 132 0 C137.218125 10.415625 142.43625 20.83125 147.8125 31.5625 C149.43518799 34.79877197 151.05787598 38.03504395 152.72973633 41.36938477 C159.30201935 54.49300058 165.83338735 67.6272389 172.12226868 80.88978577 C177.24736197 91.67651994 182.63050658 102.33343408 188 113 C194.41974621 125.75290624 200.76395301 138.53009193 206.89196777 151.42602539 C211.94185026 162.02729343 217.21887017 172.51254893 222.5 183 C224.42968368 186.83203289 226.35627631 190.66559928 228.28125 194.5 C228.69306519 195.31533203 229.10488037 196.13066406 229.5291748 196.97070312 C232.30647832 202.50368048 234.99519338 208.07557517 237.65499687 213.66569328 C244.32007954 227.67125512 251.20655888 241.55961092 258.1484375 255.4296875 C259.37656839 257.88617369 260.60421981 260.34289944 261.8319397 262.79959106 C264.38018137 267.89787228 266.93007011 272.99532702 269.48095703 278.09228516 C272.41629899 283.95749101 275.34871368 289.82415359 278.27967584 295.69154918 C280.82199996 300.78074973 283.36589609 305.86916221 285.91108572 310.95693028 C287.42041287 313.97403852 288.92922275 316.99140214 290.43659592 320.00948715 C292.11122853 323.36130255 293.78843421 326.71181819 295.46630859 330.06201172 C296.19888382 331.53019852 296.19888382 331.53019852 296.94625854 333.02804565 C297.40842773 333.94956421 297.87059692 334.87108276 298.34677124 335.82052612 C298.74083853 336.60828367 299.13490582 337.39604122 299.54091454 338.20767021 C301.61652253 342.17987209 303.82344524 346.08220142 306 350 C306.33 267.17 306.66 184.34 307 99 C293.14 99 279.28 99 265 99 C265 66.33 265 33.66 265 0 C311.2 0 357.4 0 405 0 C405 32.67 405 65.34 405 99 C392.46 99 379.92 99 367 99 C367 257.07 367 415.14 367 578 C379.54 578 392.08 578 405 578 C405 610.01 405 642.02 405 675 C362.43 675 319.86 675 276 675 C273.69 669.39 271.38 663.78 269 658 C266.14072621 651.89942171 266.14072621 651.89942171 263.20410156 645.84008789 C261.76621779 642.92498783 260.33255433 640.00795566 258.90527344 637.08764648 C257.37388079 633.95581794 255.83997352 630.82524332 254.30371094 627.69580078 C250.60445655 620.15852605 246.92373552 612.61224097 243.25 605.0625 C242.71525558 603.96421875 242.71525558 603.96421875 242.16970825 602.84375 C236.99573955 592.20958494 231.96299086 581.52058245 227.02246094 570.77563477 C222.11118546 560.13934097 216.97139967 549.61923729 211.82400513 539.09576416 C206.40609142 528.01377701 201.1229232 516.88518579 195.97265625 505.67578125 C191.45330611 495.88197758 186.73918449 486.18886825 182 476.5 C176.18771461 464.61726626 170.49562095 452.69635147 164.97265625 440.67578125 C160.4533058 430.88197691 155.73916532 421.18887821 151 411.5 C145.16485412 399.57030781 139.44901078 387.6023326 133.90234375 375.53515625 C129.21543895 365.37629009 124.32183915 355.32355351 119.41131592 345.27139282 C112.81035912 331.75196438 106.41924472 318.14563795 100.15063477 304.46899414 C99.13748207 302.29500449 98.07263315 300.14526631 97 298 C96.67 390.4 96.34 482.8 96 578 C107.88 578 119.76 578 132 578 C132 610.01 132 642.02 132 675 C88.44 675 44.88 675 0 675 C0 642.99 0 610.98 0 578 C11.22 578 22.44 578 34 578 C34 419.93 34 261.86 34 99 C22.78 99 11.56 99 0 99 C0 66.33 0 33.66 0 0 Z " fill="#006B38" transform="translate(1447,273)"/>
<path d="M0 0 C73.59 0 147.18 0 223 0 C223 32.67 223 65.34 223 99 C209.8 99 196.6 99 183 99 C183.00444122 104.84822479 183.00888245 110.69644958 183.01345825 116.72189331 C183.04213655 155.36888377 183.06853298 194.01587433 183.08468628 232.66287231 C183.08510045 233.65300974 183.08510045 233.65300974 183.08552299 234.66314994 C183.0915097 249.01093017 183.09704993 263.35871053 183.10213066 277.70649111 C183.10462519 284.74329228 183.10721832 291.78009341 183.10986328 298.81689453 C183.1101248 299.51711693 183.11038632 300.21733934 183.11065576 300.9387806 C183.1191687 323.60882035 183.13418402 346.27885009 183.15259444 368.94888378 C183.17202563 392.91956154 183.18399856 416.89023275 183.18817699 440.86091816 C183.19091764 455.21141158 183.19956574 469.56187624 183.21583293 483.9123608 C183.22642601 493.76050274 183.22959537 503.60862986 183.22700275 513.45677708 C183.22572509 519.13382371 183.22764781 524.81082017 183.23841095 530.48785782 C183.24821232 535.69591631 183.24859065 540.90389137 183.24179779 546.11195387 C183.24095942 547.98574928 183.24343777 549.8595501 183.24976636 551.733335 C183.36500178 587.99156048 175.12449218 617.42252205 149.25 644.1875 C121.89139526 671.49389366 75.89974009 676.22076034 39.3125 676.25 C38.547099 676.25067474 37.781698 676.25134949 36.99310303 676.25204468 C0.67469178 676.20155919 -38.42006428 670.33435909 -65.359375 643.73046875 C-96.64179467 611.3837064 -96.24935091 563.12564854 -96.125 520.9375 C-96.1234491 519.99474213 -96.12189819 519.05198425 -96.12030029 518.08065796 C-96.09316108 503.80438747 -95.95391123 489.52936362 -95.68060303 475.25564575 C-95.6436353 473.29889253 -95.60964261 471.34208076 -95.57867432 469.38522339 C-95.53391986 466.66925641 -95.47609272 463.95390154 -95.4140625 461.23828125 C-95.40250122 460.42902191 -95.39093994 459.61976257 -95.37902832 458.78598022 C-95.22933915 453.22933915 -95.22933915 453.22933915 -93 451 C-90.0640564 450.75949097 -90.0640564 450.75949097 -86.25537109 450.77294922 C-85.56257553 450.77265717 -84.86977997 450.77236511 -84.1559906 450.77206421 C-81.86167966 450.77345969 -79.56769184 450.78903081 -77.2734375 450.8046875 C-75.68446022 450.80841686 -74.09548064 450.8112642 -72.50650024 450.81326294 C-68.32085846 450.82090547 -64.1353551 450.84055919 -59.94976807 450.8626709 C-55.68007276 450.88311604 -51.41035513 450.8922618 -47.140625 450.90234375 C-38.76035309 450.92380457 -30.38019375 450.95794789 -22 451 C-21.99413376 452.2306015 -21.98826752 453.461203 -21.98222351 454.72909546 C-21.92489878 466.35186216 -21.85208617 477.97444352 -21.76428509 489.5970211 C-21.71964353 495.57166559 -21.68037359 501.54624286 -21.65356445 507.52099609 C-21.62746968 513.29181327 -21.58702334 519.06237092 -21.53681374 524.83302689 C-21.52018679 527.02968736 -21.50864663 529.22639267 -21.50238609 531.42310715 C-21.49269967 534.51069812 -21.4645858 537.59763135 -21.43237305 540.68505859 C-21.43380814 541.58417969 -21.43524323 542.48330078 -21.4367218 543.40966797 C-21.31143221 551.95502199 -19.60030803 560.31074318 -14 567 C-5.66231906 574.30055478 4.03520433 575.32671474 14.8046875 575.21875 C23.82334564 574.60133575 33.11183401 572.42818904 39.25 565.4375 C44.61753215 554.89413329 44.43282769 544.05537739 44.39872742 532.51753235 C44.40417223 530.64362486 44.41092602 528.76972079 44.41886932 526.89582223 C44.43684775 521.76712339 44.4363433 516.6385697 44.43273985 511.50984681 C44.43211493 505.97145075 44.44874616 500.43310295 44.46325684 494.89472961 C44.48602948 485.3059535 44.49792566 475.71721369 44.50238609 466.12841225 C44.50885089 452.26470893 44.53179413 438.40107118 44.55872939 424.53739431 C44.60198632 402.04324891 44.63198496 379.5491059 44.65356445 357.05493164 C44.67455571 335.20693607 44.70182095 313.35896299 44.73754883 291.51098633 C44.73864831 290.83711984 44.73974778 290.16325336 44.74088058 289.46896668 C44.75192925 282.70150554 44.76310513 275.93404461 44.7743742 269.16658383 C44.86881518 212.44440798 44.94098427 155.72222292 45 99 C30.15 99 15.3 99 0 99 C0 66.33 0 33.66 0 0 Z " fill="#006B38" transform="translate(168,273)"/>
<path d="M0 0 C1.59666178 -0.01106326 1.59666178 -0.01106326 3.22557935 -0.02235001 C4.40237646 -0.01517778 5.57917357 -0.00800556 6.79163119 -0.00061599 C8.66865239 -0.00692642 8.66865239 -0.00692642 10.58359321 -0.01336433 C14.08519174 -0.02470101 17.58654248 -0.01717826 21.08813477 -0.00679448 C24.90109604 0.00122061 28.71402024 -0.00813096 32.52697769 -0.01530502 C39.24484377 -0.0255166 45.96263697 -0.02446822 52.68050471 -0.01625439 C62.73740442 -0.00401329 72.79424462 -0.00898669 82.85114562 -0.01740231 C99.98774787 -0.03123112 117.12432345 -0.03073834 134.26092812 -0.02255968 C151.63659357 -0.01431733 169.01224146 -0.01255569 186.38790795 -0.01877169 C187.48375628 -0.0191592 188.5796046 -0.01954672 189.70866045 -0.01994598 C194.17158815 -0.02154572 198.63451582 -0.02319184 203.09744348 -0.02489681 C244.70584529 -0.04078136 286.31423533 -0.04183363 327.92263886 -0.03345446 C329.15662672 -0.03320607 330.39061457 -0.03295768 331.661996 -0.03270177 C332.89794504 -0.03245298 334.13389409 -0.03220419 335.40729614 -0.03194786 C373.01785003 -0.02438693 410.62839906 -0.02242013 448.23895356 -0.0260158 C450.75473494 -0.02624823 453.27051633 -0.0264797 455.78629771 -0.02671021 C465.89545436 -0.02764156 476.00461101 -0.02859755 486.11376766 -0.0295895 C514.37537285 -0.03234091 542.63697807 -0.03405243 570.89858338 -0.03494791 C572.18569199 -0.03498885 573.47280059 -0.03502978 574.79891248 -0.03507196 C615.8293241 -0.03630031 656.85973427 -0.03291922 697.89014527 -0.02639917 C698.88849981 -0.02624114 698.88849981 -0.02624114 699.90702312 -0.02607992 C722.20148526 -0.02255069 744.49594736 -0.01878257 766.79040946 -0.01499002 C834.21334349 -0.00352837 901.63627126 0.00275226 1022.04365519 -0.01533602 C1044.33243576 -0.01912555 1066.62121634 -0.02287102 1088.90999696 -0.02639917 C1089.57537819 -0.02650491 1090.24075942 -0.02661064 1090.92630372 -0.02671958 C1132.58472219 -0.03333378 1174.24313979 -0.03627288 1215.90155885 -0.03494791 C1217.83081506 -0.03488678 1217.83081506 -0.03488678 1219.79904615 -0.03482442 C1248.02892803 -0.0338871 1276.25880979 -0.03198641 1304.48869156 -0.0292164 C1314.58896583 -0.02822892 1324.6892401 -0.02728969 1334.78951438 -0.02636427 C1337.3023415 -0.0261321 1339.81516862 -0.02589591 1342.32799573 -0.02565568 C1379.93138129 -0.02207066 1417.53476136 -0.02513244 1455.13814623 -0.03270177 C1456.37213409 -0.03295016 1457.60612194 -0.03319854 1458.87750337 -0.03345446 C1460.10922812 -0.0337025 1461.34095288 -0.03395055 1462.61000263 -0.03420611 C1504.09508095 -0.04246909 1545.58014511 -0.03946078 1587.0652214 -0.02361222 C1591.51422568 -0.02195506 1595.96322997 -0.02034496 1600.41223428 -0.01877169 C1601.50414111 -0.01838107 1602.59604795 -0.01799044 1603.72104288 -0.01758799 C1621.05470117 -0.01165622 1638.38834195 -0.015806 1655.72199867 -0.0240787 C1672.74010371 -0.03198824 1689.75817902 -0.0292772 1706.77628026 -0.01503644 C1716.77047611 -0.00699363 1726.76459071 -0.00726148 1736.75878278 -0.01948123 C1743.38076941 -0.02676681 1750.00269225 -0.0233399 1756.62467108 -0.01088067 C1760.38849511 -0.00410725 1764.15215637 -0.00216882 1767.9159736 -0.01333022 C1771.94695465 -0.02518167 1775.97753564 -0.01416788 1780.00851104 -0.00061599 C1781.18530814 -0.00778822 1782.36210525 -0.01496044 1783.57456288 -0.02235001 C1784.63900406 -0.01497451 1785.70344525 -0.007599 1786.80014223 0 C1787.71983289 0.0000839 1788.63952355 0.0001678 1789.58708362 0.00025425 C1791.90007111 0.3754315 1791.90007111 0.3754315 1793.70050612 1.44308542 C1795.52640947 4.38438264 1795.26884868 7.31720694 1795.19303986 10.66840025 C1795.18879502 11.37442885 1795.18455018 12.08045744 1795.18017671 12.80788084 C1795.16340145 15.05995453 1795.12575354 17.31112893 1795.08757111 19.5629315 C1795.07252269 21.09091336 1795.05883455 22.61890926 1795.04655549 24.14691588 C1795.013502 27.89010022 1794.96172943 31.63261346 1794.90007111 35.3754315 C1739.83781544 35.39193286 1684.77555956 35.40774123 1629.71330354 35.42303892 C1628.63588538 35.42333832 1627.55846722 35.42363771 1626.44840003 35.42394617 C1511.0348559 35.45599886 1395.6213117 35.4836706 1280.2077646 35.50246092 C1277.64502378 35.50287927 1275.08228297 35.50329763 1272.51954216 35.50371598 C1219.40145754 35.51237411 1166.28337284 35.52044818 1113.16528802 35.52779228 C1111.15191887 35.52807065 1109.13854973 35.52834906 1107.12518058 35.52862749 C1106.4602001 35.52871944 1105.79521962 35.52881139 1105.11008821 35.52890613 C1080.10560759 35.53236528 1055.10112698 35.53595738 1030.09664639 35.53962883 C1027.37984192 35.54002761 1024.66303745 35.54042488 1021.94623298 35.54082077 C957.80338263 35.55016881 893.660534 35.56190969 829.51768586 35.58142515 C828.84234576 35.58163046 828.16700566 35.58183576 827.47120071 35.58204729 C805.01256658 35.58887851 782.55393253 35.59594168 760.09529848 35.60303682 C739.80321106 35.6094468 719.51112361 35.61577351 699.21903607 35.62182566 C698.2191576 35.62212392 698.2191576 35.62212392 697.19907955 35.62242822 C655.46502544 35.63485584 613.7309715 35.64367393 571.99691579 35.64885088 C570.70839582 35.64901149 569.41987585 35.64917209 568.09230982 35.64933756 C539.81071929 35.65283431 511.52912875 35.65551912 483.24753807 35.65743445 C471.86913042 35.65821935 460.49072278 35.6591212 449.11231515 35.66006323 C447.24430337 35.66021365 447.24430337 35.66021365 445.33855397 35.66036711 C405.16912562 35.66366001 364.9997072 35.67648528 324.83028286 35.69427813 C284.38818835 35.71214833 243.94610349 35.72073589 203.50400493 35.71630346 C197.9233341 35.71569417 192.34266327 35.71519204 186.76199242 35.71475454 C185.66796137 35.7146649 184.57393032 35.71457526 183.44674681 35.7144829 C166.0792997 35.71333814 148.71187294 35.72231888 131.34443139 35.73546109 C114.29307151 35.74815812 97.24173817 35.75027982 80.19037582 35.74092694 C70.17657663 35.73575911 60.16286127 35.73892944 50.14907175 35.75408251 C43.51408049 35.76331414 36.8791497 35.76183797 30.24416041 35.75133472 C26.47292802 35.74567435 22.70185967 35.74485284 18.93063939 35.75713724 C14.89173579 35.77019243 10.85322479 35.76037837 6.81431928 35.74802699 C5.63519001 35.75555362 4.45606074 35.76308025 3.24120027 35.77083496 C2.1746765 35.76377627 1.10815272 35.75671758 0.00931005 35.749445 C-0.91219269 35.74963701 -1.83369543 35.74982903 -2.7831225 35.75002687 C-5.56632711 35.30002139 -6.45869273 34.63830456 -8.09992889 32.3754315 C-8.48811248 29.42035338 -8.48811248 29.42035338 -8.49836639 25.8441815 C-8.50223357 24.55898619 -8.50610076 23.27379088 -8.51008514 21.94965025 C-8.50380096 21.28111021 -8.49751678 20.61257017 -8.49104217 19.92377134 C-8.47498243 17.8822382 -8.4908956 15.84268442 -8.51008514 13.80121275 C-8.50621795 12.51601744 -8.50235076 11.23082213 -8.49836639 9.9066815 C-8.4949826 8.72654478 -8.49159881 7.54640806 -8.48811248 6.33050963 C-8.09992889 3.3754315 -8.09992889 3.3754315 -6.89441297 1.71420359 C-4.49020015 -0.07945569 -2.98651347 0.00027246 0 0 Z " fill="#006B38" transform="translate(62.09992888569832,1003.6245684996247)"/>
<path d="M0 0 C0.66 0 1.32 0 2 0 C2.03440186 0.54374268 2.06880371 1.08748535 2.10424805 1.64770508 C3.91639019 28.94221808 7.57152643 56.39218921 14 83 C14.16322754 83.6815918 14.32645508 84.36318359 14.49462891 85.06542969 C17.43743313 96.92987164 23.82803049 110.650709 34 118 C40.55405353 117.8554878 44.4460231 114.36113749 49 110 C57.24380505 100.764672 63.7041923 90.02483177 70.38671875 79.6484375 C70.98274902 78.72385742 71.5787793 77.79927734 72.19287109 76.84667969 C73.44057929 74.88122744 74.66620288 72.90164206 75.87353516 70.91113281 C76.47858887 69.92209961 77.08364258 68.93306641 77.70703125 67.9140625 C78.51297729 66.57142334 78.51297729 66.57142334 79.33520508 65.20166016 C81.1097317 62.85488188 82.37726522 62.19298306 85 61 C85.00586624 61.61370956 85.01173248 62.22741913 85.01777649 62.85972595 C85.08245877 69.33441853 85.16705494 75.80864779 85.26245117 82.28295898 C85.29539938 84.68882073 85.32352147 87.09475419 85.34643555 89.50073242 C84.8082833 114.72344297 84.8082833 114.72344297 93 138 C96.99924563 139.99962281 101.86816099 139.62560509 106.08984375 138.38671875 C114.21417349 134.73479231 119.70202552 127.4258232 125.3984375 120.83203125 C127.50604028 118.42113929 129.63555418 116.16177904 132 114 C132.66 114 133.32 114 134 114 C134.31296564 122.0548915 133.10279648 129.66861052 131.76953125 137.59375 C131.53420352 139.02629582 131.29957477 140.45895662 131.06559753 141.89172363 C130.44732379 145.6677455 129.82087828 149.44236286 129.19226074 153.2166748 C128.20616126 159.14563361 127.23230328 165.07662245 126.25805283 171.00753784 C126.01592093 172.48036648 125.77336034 173.95312471 125.5303688 175.42581177 C123.42292603 188.20229259 121.45303843 200.99702526 119.57002258 213.80847168 C119.37764511 215.10466431 119.18526764 216.40085693 118.98706055 217.73632812 C118.81981979 218.87718872 118.65257904 220.01804932 118.48027039 221.19348145 C118 224 118 224 117 227 C39.12 227 -38.76 227 -119 227 C-124.73661378 192.58031734 -124.73661378 192.58031734 -126.60546875 179.14453125 C-126.81734708 177.6442884 -127.02962399 176.14410179 -127.24226379 174.64396667 C-127.78539108 170.80704072 -128.32459199 166.96957653 -128.86236572 163.13189697 C-129.73173952 156.93008103 -130.60579096 150.72892996 -131.48311806 144.52823448 C-131.78306631 142.40221916 -132.08018965 140.27582375 -132.3769989 138.14936829 C-133.42337544 130.73162575 -134.58208382 123.35624796 -136 116 C-127.07398085 117.57588007 -121.82655468 125.11279486 -116.17578125 131.765625 C-113.16291311 134.85962962 -110.62575949 136.7373227 -106.31640625 137.43359375 C-101.97948585 137.43974541 -98.67566768 137.27527202 -94.625 135.625 C-84.64410424 125.64410424 -83.89344486 110.11415157 -83.86132812 96.76831055 C-83.86583984 95.93726807 -83.87035156 95.10622559 -83.875 94.25 C-83.87693359 93.36546143 -83.87886719 92.48092285 -83.88085938 91.56958008 C-83.94526092 81.36819668 -84.44556292 71.18483223 -85 61 C-83.35 61 -81.7 61 -80 61 C-79.63648438 61.81082031 -79.27296875 62.62164062 -78.8984375 63.45703125 C-73.96695772 74.31893159 -68.36128069 84.58320854 -62.125 94.75 C-61.40256104 95.9568042 -61.40256104 95.9568042 -60.66552734 97.18798828 C-56.555496 103.7823295 -51.81490222 109.43316516 -44.5 112.4375 C-37.16031238 113.80254771 -37.16031238 113.80254771 -30.375 111.25 C-11.28271368 87.95741069 -8.44533072 45.77926134 -5.3293457 16.77148438 C-5.12764771 14.97227539 -5.12764771 14.97227539 -4.921875 13.13671875 C-4.81456055 12.09217529 -4.70724609 11.04763184 -4.59667969 9.97143555 C-3.87264536 6.36578014 -2.66297356 2.66297356 0 0 Z " fill="#006B38" transform="translate(279,30)"/>
<path d="M0 0 C25.08 0 50.16 0 76 0 C76 2.64 76 5.28 76 8 C74.89140625 8.26554687 73.7828125 8.53109375 72.640625 8.8046875 C71.17702189 9.16120621 69.71348359 9.51799103 68.25 9.875 C67.52039063 10.04902344 66.79078125 10.22304687 66.0390625 10.40234375 C60.8021943 11.64171114 60.8021943 11.64171114 56 14 C54.83568047 16.32863907 54.80930233 17.85302327 54.70288086 20.44970703 C54.66239624 21.38339111 54.62191162 22.3170752 54.5802002 23.27905273 C54.54213257 24.26204346 54.50406494 25.24503418 54.46484375 26.2578125 C54.42653442 27.16007568 54.3882251 28.06233887 54.34875488 28.99194336 C54.2066928 32.36942323 54.07257868 35.74723362 53.9375 39.125 C53.4734375 50.448125 53.4734375 50.448125 53 62 C71.15 62 89.3 62 108 62 C107.87625 54.6575 107.7525 47.315 107.625 39.75 C107.59100098 37.43709961 107.55700195 35.12419922 107.52197266 32.74121094 C107.48676323 30.90558421 107.4508416 29.06997095 107.4140625 27.234375 C107.40270264 26.28320801 107.39134277 25.33204102 107.37963867 24.35205078 C107.35957764 23.43891113 107.3395166 22.52577148 107.31884766 21.58496094 C107.30552399 20.79442322 107.29220032 20.0038855 107.2784729 19.18939209 C106.96594732 16.73227316 106.29826901 15.10114829 105 13 C103.23685014 12.110746 103.23685014 12.110746 101.15625 11.76953125 C100.40472656 11.60646484 99.65320313 11.44339844 98.87890625 11.27539062 C98.09386719 11.12263672 97.30882812 10.96988281 96.5 10.8125 C88.11334746 9.05667373 88.11334746 9.05667373 86 8 C86 5.36 86 2.72 86 0 C111.08 0 136.16 0 162 0 C162 2.64 162 5.28 162 8 C161.4652002 8.14622803 160.93040039 8.29245605 160.37939453 8.44311523 C157.96066661 9.10575521 155.54282904 9.77158806 153.125 10.4375 C152.28324219 10.66759766 151.44148437 10.89769531 150.57421875 11.13476562 C149.76855469 11.35712891 148.96289062 11.57949219 148.1328125 11.80859375 C147.01737061 12.11494751 147.01737061 12.11494751 145.87939453 12.42749023 C143.9363705 12.96216267 143.9363705 12.96216267 142 14 C141.00680812 16.86350252 140.87269761 19.54170258 140.86628723 22.55419922 C140.86202225 23.46264587 140.85775726 24.37109253 140.85336304 25.30706787 C140.85381622 26.29628235 140.85426941 27.28549683 140.85473633 28.3046875 C140.85137772 29.35223206 140.8480191 30.39977661 140.84455872 31.47906494 C140.83505374 34.94438866 140.83310597 38.40966406 140.83203125 41.875 C140.82881889 44.28108744 140.82545483 46.68717469 140.82194519 49.09326172 C140.81595544 54.13704888 140.81410519 59.18081891 140.81469727 64.22460938 C140.814799 70.69457436 140.80113428 77.16442988 140.78392506 83.6343689 C140.77282055 88.60311388 140.77077756 93.57183225 140.77130699 98.54058838 C140.77012502 100.92645648 140.76569112 103.31232523 140.75797462 105.69818115 C140.74820399 109.03063696 140.75104104 112.36285303 140.75708008 115.6953125 C140.75146057 116.68452698 140.74584106 117.67374146 140.74005127 118.69293213 C140.74424576 119.60137878 140.74844025 120.50982544 140.75276184 121.44580078 C140.75221707 122.23334747 140.75167231 123.02089417 140.75111103 123.83230591 C141.0346429 126.30172172 141.68311641 127.89951228 143 130 C145.08633253 131.0644392 145.08633253 131.0644392 147.5625 131.625 C148.44808594 131.86089844 149.33367187 132.09679688 150.24609375 132.33984375 C154.15583726 133.27707305 158.064768 134.17487071 162 135 C162 137.97 162 140.94 162 144 C160.51850464 143.94670532 160.51850464 143.94670532 159.00708008 143.89233398 C134.61883666 143.03840078 110.38472374 143.05478921 86 144 C86 141.03 86 138.06 86 135 C87.18078125 134.75765625 88.3615625 134.5153125 89.578125 134.265625 C91.13558583 133.92786241 92.69286847 133.58927744 94.25 133.25 C95.02730469 133.09273437 95.80460938 132.93546875 96.60546875 132.7734375 C97.35957031 132.60585937 98.11367188 132.43828125 98.890625 132.265625 C99.58188477 132.11899414 100.27314453 131.97236328 100.98535156 131.82128906 C103.72445383 130.70467006 105.09981286 129.26011895 107 127 C107.61002162 124.55182774 107.61002162 124.55182774 107.54589844 121.86425781 C107.56571777 120.82930176 107.58553711 119.7943457 107.60595703 118.72802734 C107.60708496 117.64730957 107.60821289 116.5665918 107.609375 115.453125 C107.62500488 114.45458496 107.64063477 113.45604492 107.65673828 112.42724609 C107.70928981 108.70173833 107.72759667 104.97581103 107.75 101.25 C107.8325 92.9175 107.915 84.585 108 76 C89.85 76 71.7 76 53 76 C53.2475 84.3325 53.495 92.665 53.75 101.25 C53.81799805 103.87614258 53.88599609 106.50228516 53.95605469 109.20800781 C54.02646755 111.28976576 54.09831019 113.37147605 54.171875 115.453125 C54.20595459 117.07420166 54.20595459 117.07420166 54.24072266 118.72802734 C54.30090576 120.28046143 54.30090576 120.28046143 54.36230469 121.86425781 C54.38895203 122.76138489 54.41559937 123.65851196 54.4430542 124.58282471 C55.16887437 127.73292403 56.54420489 128.96296473 59 131 C60.99042066 131.88077171 60.99042066 131.88077171 63.109375 132.265625 C64.24052734 132.51699219 64.24052734 132.51699219 65.39453125 132.7734375 C66.17183594 132.93070313 66.94914063 133.08796875 67.75 133.25 C68.93916016 133.50910156 68.93916016 133.50910156 70.15234375 133.7734375 C72.09873515 134.19554648 74.04903064 134.59958271 76 135 C76 137.97 76 140.94 76 144 C74.35862061 143.94670532 74.35862061 143.94670532 72.68408203 143.89233398 C48.40396766 143.12299956 24.27174597 142.93536503 0 144 C0 141.03 0 138.06 0 135 C1.91425781 134.49339844 1.91425781 134.49339844 3.8671875 133.9765625 C5.53655399 133.52639625 7.20581966 133.07585599 8.875 132.625 C9.71675781 132.40328125 10.55851563 132.1815625 11.42578125 131.953125 C12.63427734 131.62441406 12.63427734 131.62441406 13.8671875 131.2890625 C14.98262939 130.99056396 14.98262939 130.99056396 16.12060547 130.68603516 C18.20704055 130.07413968 18.20704055 130.07413968 20 128 C21.42590827 123.29702846 21.14773654 118.37068914 21.14526367 113.50317383 C21.14862228 112.55290314 21.1519809 111.60263245 21.15544128 110.62356567 C21.16493279 107.48470753 21.1668937 104.34590286 21.16796875 101.20703125 C21.1711833 99.01852903 21.17454752 96.83002703 21.17805481 94.64152527 C21.18404209 90.05259707 21.18589519 85.46368769 21.18530273 80.87475586 C21.1852013 75.01186857 21.19883599 69.14910291 21.21607494 63.28624439 C21.2272288 58.76419019 21.22922088 54.24216504 21.22869301 49.7200985 C21.22986869 47.55968495 21.23426724 45.39927055 21.24202538 43.23887062 C21.25189075 40.20709514 21.24892115 37.17557904 21.24291992 34.14379883 C21.24853943 33.2618837 21.25415894 32.37996857 21.25994873 31.47132874 C21.23066878 25.61097906 20.95789464 19.57278467 19 14 C16.3074644 12.18546514 15.04711058 11.68755316 12 11 C10.96746094 10.72671875 9.93492187 10.4534375 8.87109375 10.171875 C5.92227332 9.40594762 2.96800296 8.6871731 0 8 C0 5.36 0 2.72 0 0 Z " fill="#E3077D" transform="translate(608,1115)"/>
<path d="M0 0 C0 12.87 0 25.74 0 39 C-3.63 39 -7.26 39 -11 39 C-11.29132813 37.88882812 -11.58265625 36.77765625 -11.8828125 35.6328125 C-15.26027863 21.54122975 -15.26027863 21.54122975 -23.984375 10.546875 C-31.41241565 6.58152999 -39.52407907 5.83952001 -47.625 8.0625 C-52.41727102 9.7953454 -55.29093174 12.74289274 -58 17 C-59.66015794 21.98047382 -60.03876138 27.23805968 -58.1640625 32.22265625 C-51.49133684 43.84394691 -36.73714571 49.33902515 -25.13671875 54.8515625 C-11.98940407 61.14503117 -0.98298309 68.67850522 4.23828125 82.66796875 C7.91556255 93.92610687 7.30131164 107.38244345 2 118 C-5.73045472 131.10512752 -16.29360948 138.24451243 -30.8984375 142.1171875 C-37.04467199 143.41339776 -43.27325295 143.33536677 -49.52685547 143.31567383 C-51.60048231 143.31253709 -53.67264468 143.33595805 -55.74609375 143.36132812 C-68.29226001 143.42225717 -79.16100997 141.43962126 -91 137 C-90.34 123.14 -89.68 109.28 -89 95 C-85.37 95 -81.74 95 -78 95 C-77.69707031 96.11117188 -77.39414063 97.22234375 -77.08203125 98.3671875 C-73.38661703 113.87149566 -73.38661703 113.87149566 -63.91015625 126.03125 C-55.53842377 130.27703662 -46.91497654 130.87320027 -38 128 C-36.64410021 127.03081811 -35.30534874 126.03626369 -34 125 C-33.34 125 -32.68 125 -32 125 C-31.31225595 123.67741528 -30.65288627 122.34013497 -30 121 C-29.46375 119.989375 -28.9275 118.97875 -28.375 117.9375 C-26.08925929 112.47516579 -26.07327742 106.48447691 -27.5859375 100.796875 C-32.11558948 90.2415392 -42.92646785 85.13325517 -52.75 80.5625 C-68.44997032 72.97105222 -83.88817965 65.48112058 -90 48 C-93.14855974 37.92038258 -91.21218546 26.44025094 -87 17 C-80.16514894 5.73264653 -69.99591826 -1.20511543 -57.4375 -4.8125 C-38.23613071 -8.7570552 -18.39362076 -6.13120692 0 0 Z " fill="#E2077D" transform="translate(1369,1118)"/>
<path d="M0 0 C1.39255005 0.7731958 1.39255005 0.7731958 2.81323242 1.56201172 C2.72235352 3.13776978 2.72235352 3.13776978 2.62963867 4.74536133 C1.47108787 25.03093011 0.4283036 45.2348088 0.81323242 65.56201172 C1.53768555 64.81435547 2.26213867 64.06669922 3.00854492 63.29638672 C3.98483207 62.30132482 4.96141019 61.30654834 5.93823242 60.31201172 C6.41260742 59.82087891 6.88698242 59.32974609 7.37573242 58.82373047 C14.53752068 51.56516129 21.13076954 48.51828671 31.25073242 48.24951172 C38.4438579 48.38149567 42.98421632 49.71227042 49.06323242 53.68701172 C56.02559476 60.96584508 56.4129057 69.12603689 56.48428345 78.79944801 C56.50105519 80.99887042 56.54221649 83.19670656 56.58935547 85.39567566 C56.70138374 90.84787132 56.77269083 96.30044973 56.84460449 101.7532959 C56.90714588 106.38159657 56.98548943 111.00909939 57.08511353 115.63675499 C57.1251382 117.79943511 57.14185467 119.96149358 57.15771484 122.12446594 C57.18454346 123.43650497 57.21137207 124.74854401 57.23901367 126.1003418 C57.25359619 127.25456131 57.26817871 128.40878082 57.28320312 129.59797668 C57.92466432 133.18516229 58.97775248 134.34515419 61.81323242 136.56201172 C64.36950767 137.66410505 64.36950767 137.66410505 67.06323242 138.31201172 C68.4012793 138.67552734 68.4012793 138.67552734 69.76635742 139.04638672 C70.44182617 139.21654297 71.11729492 139.38669922 71.81323242 139.56201172 C71.81323242 142.53201172 71.81323242 145.50201172 71.81323242 148.56201172 C70.69972412 148.50871704 70.69972412 148.50871704 69.5637207 148.4543457 C51.89203609 147.64171411 34.48796351 147.57423369 16.81323242 148.56201172 C16.81323242 145.59201172 16.81323242 142.62201172 16.81323242 139.56201172 C17.52350586 139.28486328 18.2337793 139.00771484 18.96557617 138.72216797 C19.88467773 138.35994141 20.8037793 137.99771484 21.75073242 137.62451172 C22.66725586 137.26486328 23.5837793 136.90521484 24.52807617 136.53466797 C26.73741775 135.76238991 26.73741775 135.76238991 27.81323242 134.56201172 C27.9225504 132.84500444 27.96231086 131.12351772 27.97436523 129.40307617 C27.98397278 128.30135574 27.99358032 127.19963531 28.003479 126.06452942 C28.00772888 124.86358139 28.01197876 123.66263336 28.01635742 122.42529297 C28.0220575 121.19795944 28.02775757 119.97062592 28.03363037 118.70610046 C28.04310007 116.10086942 28.04962213 113.49562628 28.0534668 110.89038086 C28.06000573 106.9090163 28.09414504 102.92802088 28.12573242 98.94677734 C28.13226447 96.41878563 28.13751415 93.8907902 28.14135742 91.36279297 C28.15987762 89.57655266 28.15987762 89.57655266 28.17877197 87.75422668 C28.21284539 79.71818207 28.21284539 79.71818207 24.81323242 72.56201172 C21.44749069 70.13554675 18.88814723 69.31285475 14.81323242 69.62451172 C10.74942911 70.35490849 7.97077721 71.84505457 4.81323242 74.56201172 C1.66793662 79.65956008 0.69577658 84.45850154 0.66796875 90.38061523 C0.6615889 91.30830215 0.65520905 92.23598907 0.64863586 93.19178772 C0.64752304 94.1815007 0.64641022 95.17121368 0.64526367 96.19091797 C0.64193527 97.21757065 0.63860687 98.24422333 0.63517761 99.30198669 C0.63012407 101.46800286 0.6277688 103.63402678 0.62792969 105.80004883 C0.62573804 109.11601496 0.60755142 112.43165105 0.58862305 115.74755859 C0.58568986 117.85367725 0.58370456 119.95979748 0.58276367 122.06591797 C0.57557816 123.05765518 0.56839264 124.0493924 0.56098938 125.07118225 C0.56560432 126.45798439 0.56560432 126.45798439 0.5703125 127.87280273 C0.56888748 128.68378922 0.56746246 129.4947757 0.56599426 130.33033752 C0.84388091 132.83865764 1.46854123 134.43422865 2.81323242 136.56201172 C4.97604524 137.68457662 4.97604524 137.68457662 7.43823242 138.31201172 C8.25549805 138.55435547 9.07276367 138.79669922 9.91479492 139.04638672 C10.5412793 139.21654297 11.16776367 139.38669922 11.81323242 139.56201172 C11.81323242 142.53201172 11.81323242 145.50201172 11.81323242 148.56201172 C10.85960815 148.50871704 10.85960815 148.50871704 9.88671875 148.4543457 C-7.90009156 147.50552574 -25.40611191 147.71099488 -43.18676758 148.56201172 C-43.18676758 145.59201172 -43.18676758 142.62201172 -43.18676758 139.56201172 C-41.92219727 139.21589844 -41.92219727 139.21589844 -40.63208008 138.86279297 C-39.53637695 138.53666016 -38.44067383 138.21052734 -37.31176758 137.87451172 C-36.2212207 137.56126953 -35.13067383 137.24802734 -34.00708008 136.92529297 C-31.10740452 135.84913356 -31.10740452 135.84913356 -30.04907227 133.59594727 C-28.82499631 129.28915455 -28.71399689 125.1159661 -28.56958008 120.65576172 C-28.5320462 119.65452271 -28.49451233 118.65328369 -28.45584106 117.6217041 C-28.04554752 105.4272743 -28.03679925 93.22835228 -28.05639648 81.02832031 C-28.06176102 77.06685563 -28.05641223 73.10550427 -28.05004883 69.14404297 C-28.04651329 57.18128264 -28.1367973 45.23445605 -28.63208008 33.28076172 C-28.67082245 32.31787231 -28.70956482 31.35498291 -28.7494812 30.36291504 C-28.79082184 29.48953491 -28.83216248 28.61615479 -28.87475586 27.71630859 C-28.91061798 26.95733276 -28.9464801 26.19835693 -28.98342896 25.41638184 C-29.08834457 23.46964437 -29.08834457 23.46964437 -30.18676758 21.56201172 C-34.47676758 21.56201172 -38.76676758 21.56201172 -43.18676758 21.56201172 C-43.18676758 18.59201172 -43.18676758 15.62201172 -43.18676758 12.56201172 C-42.50799561 12.38661865 -41.82922363 12.21122559 -41.12988281 12.03051758 C-23.06225812 7.32365574 -23.06225812 7.32365574 -6.17504883 -0.44580078 C-3.18676758 -1.43798828 -3.18676758 -1.43798828 0 0 Z " fill="#E3077D" transform="translate(1145.186767578125,1110.43798828125)"/>
<path d="M0 0 C3.46679687 0.04882812 3.46679687 0.04882812 6.93359375 0.09765625 C10.87043844 8.5135049 14.62824126 16.97754363 18.24609375 25.53515625 C25.55015847 42.68103981 33.17238982 59.68249868 40.83813477 76.66918945 C41.93047257 79.09073706 43.02103364 81.51307869 44.11132812 83.93554688 C45.87629779 87.85484124 47.64801405 91.77102368 49.42468262 95.68502808 C50.0811071 97.13275579 50.73589885 98.58122528 51.38879395 100.0305481 C54.94943693 107.92778462 58.67177758 115.7267042 62.65234375 123.421875 C63.01904175 124.14510452 63.38573975 124.86833405 63.7635498 125.61347961 C67.09500142 131.94417454 70.30374896 134.11650952 77.18359375 136.28515625 C78.26125 136.62933594 79.33890625 136.97351562 80.44921875 137.328125 C81.2690625 137.58207031 82.08890625 137.83601563 82.93359375 138.09765625 C82.93359375 141.06765625 82.93359375 144.03765625 82.93359375 147.09765625 C81.62600098 147.04436157 81.62600098 147.04436157 80.29199219 146.98999023 C57.45009427 146.09898367 34.77430969 146.20317479 11.93359375 147.09765625 C11.93359375 144.12765625 11.93359375 141.15765625 11.93359375 138.09765625 C18.86359375 136.11765625 18.86359375 136.11765625 25.93359375 134.09765625 C27.07484541 129.53264959 26.60432225 128.51590999 24.84375 124.30859375 C24.38935547 123.20257812 23.93496094 122.0965625 23.46679688 120.95703125 C22.98146484 119.8071875 22.49613281 118.65734375 21.99609375 117.47265625 C21.04666871 115.18996899 20.0999116 112.90616964 19.15625 110.62109375 C18.73093994 109.60966309 18.30562988 108.59823242 17.86743164 107.55615234 C16.93359375 105.09765625 16.93359375 105.09765625 16.93359375 103.09765625 C0.76359375 103.09765625 -15.40640625 103.09765625 -32.06640625 103.09765625 C-33.05640625 106.06765625 -34.04640625 109.03765625 -35.06640625 112.09765625 C-35.66588247 113.6641761 -36.28075445 115.22511692 -36.92578125 116.7734375 C-37.23644531 117.53849609 -37.54710937 118.30355469 -37.8671875 119.09179688 C-38.50909754 120.65958951 -39.15772838 122.22464454 -39.8125 123.78710938 C-40.11800781 124.54572266 -40.42351563 125.30433594 -40.73828125 126.0859375 C-41.1573877 127.09974487 -41.1573877 127.09974487 -41.58496094 128.1340332 C-42.31177055 130.43816976 -42.31177055 130.43816976 -41.06640625 134.09765625 C-36.44640625 135.41765625 -31.82640625 136.73765625 -27.06640625 138.09765625 C-27.06640625 141.06765625 -27.06640625 144.03765625 -27.06640625 147.09765625 C-28.05930664 147.04436157 -28.05930664 147.04436157 -29.07226562 146.98999023 C-45.15427105 146.16126335 -60.99121841 146.15631642 -77.06640625 147.09765625 C-77.06640625 144.12765625 -77.06640625 141.15765625 -77.06640625 138.09765625 C-75.96232422 137.75154297 -75.96232422 137.75154297 -74.8359375 137.3984375 C-73.86011719 137.07230469 -72.88429688 136.74617188 -71.87890625 136.41015625 C-70.91597656 136.09691406 -69.95304687 135.78367187 -68.9609375 135.4609375 C-63.16530791 132.731282 -60.34987732 128.28767908 -57.640625 122.65625 C-57.33631058 122.02942322 -57.03199615 121.40259644 -56.71846008 120.7567749 C-55.71888576 118.68815898 -54.73584483 116.61219526 -53.75390625 114.53515625 C-53.04778549 113.05952751 -52.34139988 111.58402549 -51.63476562 110.10864258 C-44.84180461 95.85878354 -38.4359942 81.43770297 -32.09342957 66.98309326 C-29.69755784 61.52416353 -27.28230787 56.07413593 -24.85546875 50.62890625 C-24.50841385 49.85008087 -24.16135895 49.07125549 -23.80378723 48.26882935 C-23.10906912 46.70998381 -22.41431131 45.15115596 -21.71951294 43.59234619 C-16.37600803 31.60090511 -11.06495224 19.59763835 -5.89501953 7.5300293 C-5.53005371 6.682229 -5.16508789 5.83442871 -4.7890625 4.9609375 C-4.47718994 4.23173096 -4.16531738 3.50252441 -3.84399414 2.7512207 C-2.60819723 0.12326074 -2.60819723 0.12326074 0 0 Z M-8.06640625 47.09765625 C-10.63493701 53.04030867 -13.19785747 58.98535695 -15.75683594 64.93212891 C-16.62858208 66.95612713 -17.50162543 68.97956715 -18.37597656 71.00244141 C-19.63034632 73.90512698 -20.88008301 76.80976838 -22.12890625 79.71484375 C-22.52263428 80.62321991 -22.9163623 81.53159607 -23.32202148 82.46749878 C-23.86258179 83.72857956 -23.86258179 83.72857956 -24.4140625 85.01513672 C-24.73383057 85.75682098 -25.05359863 86.49850525 -25.38305664 87.26266479 C-26.18273487 89.08368205 -26.18273487 89.08368205 -26.06640625 91.09765625 C-13.52640625 91.09765625 -0.98640625 91.09765625 11.93359375 91.09765625 C8.00748591 80.62803533 4.00744359 70.33550329 -0.44140625 60.09765625 C-0.99253652 58.82176529 -1.54331861 57.54572387 -2.09375 56.26953125 C-3.41458478 53.21075598 -4.73881352 50.15350288 -6.06640625 47.09765625 C-6.72640625 47.09765625 -7.38640625 47.09765625 -8.06640625 47.09765625 Z " fill="#E2077D" transform="translate(77.06640625,1111.90234375)"/>
<path d="M0 0 C0.57234375 0.41121094 1.1446875 0.82242187 1.734375 1.24609375 C2.724375 1.74109375 2.724375 1.74109375 3.734375 2.24609375 C3.69679077 3.07911011 3.69679077 3.07911011 3.65844727 3.92895508 C3.39178425 9.87112616 3.13583589 15.81370449 2.88386536 21.7565155 C2.79035979 23.93923143 2.69509732 26.12187361 2.59721375 28.30439758 C1.80713937 46.00584108 1.57537648 63.67969327 1.60400391 81.39477539 C1.60978222 85.0080764 1.60634831 88.62130439 1.60043144 92.23460293 C1.59679356 95.07876626 1.59797777 97.92291261 1.60055923 100.76707649 C1.60152785 102.73432083 1.59855133 104.70156589 1.59542847 106.66880798 C1.61047852 112.46170679 1.71216316 118.24014055 2.05517578 124.02368164 C2.11198517 124.98391739 2.16879456 125.94415314 2.22732544 126.93348694 C2.53475462 129.61419648 2.53475462 129.61419648 5.734375 131.24609375 C8.47310455 131.70381438 8.47310455 131.70381438 11.421875 131.87109375 C12.41574219 131.94585938 13.40960937 132.020625 14.43359375 132.09765625 C15.19285156 132.14664062 15.95210937 132.195625 16.734375 132.24609375 C16.734375 134.88609375 16.734375 137.52609375 16.734375 140.24609375 C16.085896 140.37137451 15.43741699 140.49665527 14.76928711 140.62573242 C3.12581563 142.89876072 -8.24793462 145.15277358 -19.33984375 149.42578125 C-23.22055771 150.51383189 -25.71003199 150.02389025 -29.265625 148.24609375 C-28.935625 144.61609375 -28.605625 140.98609375 -28.265625 137.24609375 C-29.544375 138.11234375 -30.823125 138.97859375 -32.140625 139.87109375 C-42.93596771 147.06229514 -50.01084324 151.09761306 -63.265625 150.24609375 C-71.14359535 148.05059382 -77.65774948 142.01021869 -82.171875 135.26953125 C-90.64604467 119.59231736 -90.47592104 99.60004349 -85.59375 82.8046875 C-80.4885596 69.12578027 -72.11310658 59.98685032 -59.265625 53.24609375 C-49.24683667 48.91226674 -37.9372419 47.36856589 -27.265625 50.24609375 C-27.2073788 46.51699309 -27.17194583 42.78801011 -27.140625 39.05859375 C-27.12386719 38.00349609 -27.10710937 36.94839844 -27.08984375 35.86132812 C-27.08339844 34.83974609 -27.07695312 33.81816406 -27.0703125 32.765625 C-27.05983887 31.82823486 -27.04936523 30.89084473 -27.03857422 29.92504883 C-27.17500418 26.7678167 -27.17500418 26.7678167 -29.265625 22.24609375 C-33.225625 22.24609375 -37.185625 22.24609375 -41.265625 22.24609375 C-41.265625 19.27609375 -41.265625 16.30609375 -41.265625 13.24609375 C-40.617146 13.07070068 -39.96866699 12.89530762 -39.30053711 12.71459961 C-27.3807786 9.45684888 -16.00034101 6.22499863 -5.09375 0.3359375 C-2.265625 -0.75390625 -2.265625 -0.75390625 0 0 Z M-53.953125 69.18359375 C-61.63141089 80.94870923 -60.75732047 99.06955846 -58.140625 112.37109375 C-56.24253763 119.35748107 -53.27978685 124.96872702 -47.453125 129.37109375 C-43.09713206 130.56685652 -39.56675853 130.7541835 -35.265625 129.24609375 C-29.80202386 125.11649289 -28.03051444 119.84442907 -26.93359375 113.25 C-25.06125049 98.84543918 -23.27664954 77.21407456 -32.265625 65.24609375 C-34.19098172 63.10680851 -35.46990622 62.36933127 -38.30859375 61.9296875 C-45.50467091 61.55602185 -49.0986553 63.87754547 -53.953125 69.18359375 Z " fill="#E3077D" transform="translate(538.265625,1109.75390625)"/>
<path d="M0 0 C-0.33 4.95 -0.66 9.9 -1 15 C0.299375 13.47375 1.59875 11.9475 2.9375 10.375 C8.94775198 3.69167564 14.97379392 -1.61408533 24.171875 -2.203125 C32.69177445 -2.3147394 38.4144985 -1.81383046 45.75 2.6875 C51.22682213 8.31645607 53.0946153 15.05870798 53.18945312 22.74316406 C53.20617065 23.89826477 53.22288818 25.05336548 53.2401123 26.24346924 C53.25368774 27.48828064 53.26726318 28.73309204 53.28125 30.015625 C53.30938231 31.97919225 53.33751958 33.94275944 53.36594391 35.90632248 C53.41456328 39.35416492 53.45703562 42.80208324 53.5 46.25 C53.55127291 50.34931085 53.60375248 54.44858573 53.66296387 58.54779053 C53.69940286 61.09871956 53.73188493 63.64970904 53.7598877 66.20074463 C53.87100978 75.14568778 53.87100978 75.14568778 55 84 C58.6248617 87.29532882 63.31955301 87.96871507 68 89 C68 91.97 68 94.94 68 98 C67.32348389 97.96447021 66.64696777 97.92894043 65.94995117 97.89233398 C48.56145301 97.01757876 31.38523636 97.086949 14 98 C14 95.03 14 92.06 14 89 C14.62648438 88.84144531 15.25296875 88.68289063 15.8984375 88.51953125 C17.12433594 88.16955078 17.12433594 88.16955078 18.375 87.8125 C19.59316406 87.48185547 19.59316406 87.48185547 20.8359375 87.14453125 C23.78288939 85.58594478 23.99557331 84.1293165 25 81 C25.304368 78.50235652 25.304368 78.50235652 25.2746582 75.89355469 C25.28419022 74.90192322 25.29372223 73.91029175 25.30354309 72.88861084 C25.30263168 71.82708801 25.30172028 70.76556519 25.30078125 69.671875 C25.30720894 68.01650726 25.30720894 68.01650726 25.31376648 66.32769775 C25.31950374 63.99435104 25.3200145 61.66098645 25.31567383 59.32763672 C25.31252369 55.77670327 25.33594745 52.22661116 25.36132812 48.67578125 C25.3636023 46.40364688 25.36430406 44.13151028 25.36328125 41.859375 C25.372491 40.8059491 25.38170074 39.75252319 25.39118958 38.66717529 C25.3536248 32.61077321 25.16583971 26.34872802 22 21 C18.32200457 18.64084429 15.33090797 18.55956868 11 19 C5.64053858 20.97335818 2.77739681 23.97932116 0 29 C-2.97340227 37.92020682 -2.15761768 48.06235439 -2.13037109 57.37963867 C-2.12500023 59.56240758 -2.1303543 61.74497158 -2.13671875 63.92773438 C-2.13987624 71.3443714 -1.91324216 78.62883115 -1 86 C2.3 86.99 5.6 87.98 9 89 C9 91.97 9 94.94 9 98 C8.35901367 97.96447021 7.71802734 97.92894043 7.05761719 97.89233398 C-10.36349682 96.9695141 -27.57915344 97.13073169 -45 98 C-45 95.03 -45 92.06 -45 89 C-41.04 87.68 -37.08 86.36 -33 85 C-31.24785435 77.46798723 -30.71785932 70.50711816 -30.76953125 62.7890625 C-30.76998947 61.65850433 -30.77044769 60.52794617 -30.7709198 59.36312866 C-30.77392248 56.99158671 -30.78174863 54.62004638 -30.79418945 52.24853516 C-30.81255135 48.61483814 -30.81469809 44.98139504 -30.81445312 41.34765625 C-30.81936529 39.03645613 -30.82519229 36.72525773 -30.83203125 34.4140625 C-30.83314407 33.32864166 -30.8342569 32.24322083 -30.83540344 31.12490845 C-30.84178329 30.11640839 -30.84816315 29.10790833 -30.85473633 28.06884766 C-30.85854813 27.18411774 -30.86235992 26.29938782 -30.86628723 25.3878479 C-30.94174595 22.70058758 -30.94174595 22.70058758 -32 19 C-36.29 19 -40.58 19 -45 19 C-45 16.36 -45 13.72 -45 11 C-44.351521 10.82460693 -43.70304199 10.64921387 -43.03491211 10.46850586 C-31.13787981 7.21696635 -19.81724034 4.05583898 -9.0234375 -2.0078125 C-6 -3 -6 -3 0 0 Z " fill="#E3077D" transform="translate(1680,1161)"/>
<path d="M0 0 C1.28934448 -0.0151062 1.28934448 -0.0151062 2.60473633 -0.03051758 C10.84190622 0.08199244 18.59357308 2.05027736 25 7.4375 C32.54639886 16.09489647 32.31179784 27.99014636 32.125 38.8984375 C32.11742676 39.93263824 32.10985352 40.96683899 32.10205078 42.03237915 C32.0778962 45.29260105 32.04062375 48.55244446 32 51.8125 C31.94668644 56.1328028 31.9068148 60.45292899 31.875 64.7734375 C31.85840332 65.75476654 31.84180664 66.73609558 31.82470703 67.74716187 C31.78898245 72.73188402 32.01323115 76.7648778 34 81.4375 C38.15977424 82.62600693 40.07905406 82.04609321 44 80.4375 C46.125 80.5 46.125 80.5 48 81.4375 C49.038462 83.08047731 50.04209719 84.74628742 51 86.4375 C30.09287446 102.86452721 30.09287446 102.86452721 18.1171875 101.86328125 C13.52556246 100.93987326 10.82747627 99.30852765 7.625 95.9375 C6 93.4375 6 93.4375 6 90.4375 C5.18208984 90.89189453 5.18208984 90.89189453 4.34765625 91.35546875 C2.76208713 92.23634049 1.1761216 93.11649892 -0.41015625 93.99609375 C-2.10844138 94.94129317 -3.80387205 95.89164368 -5.49609375 96.84765625 C-6.28113281 97.28980469 -7.06617188 97.73195313 -7.875 98.1875 C-8.59429688 98.59484375 -9.31359375 99.0021875 -10.0546875 99.421875 C-16.24001214 102.65116096 -24.55365294 102.41109668 -31.265625 100.94140625 C-37.99784135 98.2576173 -42.23358472 93.80475619 -45.23828125 87.40234375 C-48.50446964 78.97725267 -47.72069109 70.18118503 -44.29296875 61.93359375 C-39.6951035 53.05735237 -31.20279209 49.67414342 -22.53808594 45.63085938 C-19.65106348 44.27343673 -16.78250991 42.88060898 -13.9140625 41.484375 C-11.81799485 40.46815881 -9.72164202 39.45253062 -7.625 38.4375 C-6.60792969 37.94411133 -5.59085938 37.45072266 -4.54296875 36.94238281 C-3.59292969 36.48702148 -2.64289062 36.03166016 -1.6640625 35.5625 C-0.81279785 35.15257812 0.0384668 34.74265625 0.91552734 34.3203125 C3 33.4375 3 33.4375 5 33.4375 C4.71653722 31.51960287 4.4228972 29.60320817 4.125 27.6875 C3.96257813 26.62015625 3.80015625 25.5528125 3.6328125 24.453125 C3.05936553 21.72040242 2.49385797 19.77663704 1 17.4375 C-3.41168532 14.56477468 -6.78318741 13.80788469 -12 14.4375 C-20.67083392 17.36638856 -24.33595526 22.9335652 -28.3125 30.8125 C-29.21623295 32.68370526 -30.11474829 34.55748091 -31 36.4375 C-34.3 36.1075 -37.6 35.7775 -41 35.4375 C-40.80442054 32.62733202 -40.57925574 29.82436818 -40.31640625 27.01953125 C-40.10124963 24.58374583 -39.9445085 22.14224726 -39.83984375 19.69921875 C-39.16248328 10.66456568 -39.16248328 10.66456568 -36.2421875 7.58203125 C-33.53545075 6.09103219 -30.98067982 5.26263941 -28 4.4375 C-26.16695312 3.85935547 -26.16695312 3.85935547 -24.296875 3.26953125 C-16.24058631 0.92568807 -8.38017822 0.06312053 0 0 Z M-15.2578125 57.41015625 C-19.28742522 62.09932442 -19.36968451 66.84013639 -19.2578125 72.77734375 C-18.84422051 77.04486112 -17.12528022 79.80584368 -14.75 83.25 C-11.83124481 85.23058388 -9.49780396 85.37920327 -6 85.4375 C-2.14451812 84.10230238 0.39404618 82.22523997 2.875 79 C4.87482847 74.44483515 5.12197827 70.19908919 5.09765625 65.26171875 C5.09282227 63.52631836 5.09282227 63.52631836 5.08789062 61.75585938 C5.07951172 60.55767578 5.07113281 59.35949219 5.0625 58.125 C5.05798828 56.90748047 5.05347656 55.68996094 5.04882812 54.43554688 C5.03706578 51.43614774 5.02062826 48.43684911 5 45.4375 C-1.97368908 45.4375 -10.36505213 53.02817855 -15.2578125 57.41015625 Z " fill="#E3077D" transform="translate(921,1158.5625)"/>
<path d="M0 0 C7.82624144 6.33432466 10.34961657 13.15598136 12.29296875 22.83203125 C12.54691406 24.05019531 12.80085938 25.26835938 13.0625 26.5234375 C12.27029545 31.6222574 10.02370303 33.30447956 6.18147278 36.56700134 C1.54430149 39.48995989 -2.77300476 39.26598571 -8.1171875 39.05078125 C-9.19205917 39.03946167 -10.26693085 39.02814209 -11.37437439 39.01647949 C-14.77880587 38.97199919 -18.17889168 38.87168567 -21.58203125 38.76953125 C-23.90163152 38.72936782 -26.22129837 38.6928721 -28.54101562 38.66015625 C-34.20198211 38.5723585 -39.86044621 38.43881007 -45.51953125 38.26953125 C-45.24671909 40.63169455 -44.96251995 42.99158103 -44.671875 45.3515625 C-44.55942444 46.34065613 -44.55942444 46.34065613 -44.44470215 47.34973145 C-43.54025174 54.54331869 -41.25374296 61.63463804 -36.859375 67.4765625 C-35.51953125 69.26953125 -35.51953125 69.26953125 -35.51953125 71.26953125 C-27.16285762 75.60262128 -19.02132555 76.93550347 -9.69921875 74.546875 C-4.02994145 72.3520294 1.23242985 69.31677964 6.48046875 66.26953125 C8.46046875 68.90953125 10.44046875 71.54953125 12.48046875 74.26953125 C1.08131652 86.08395314 -13.52481152 97.04501106 -30.41723633 97.62109375 C-41.64163182 97.74622927 -50.81777102 95.65873547 -59.51953125 88.26953125 C-70.04949292 77.59126026 -73.47076804 63.5279807 -73.83203125 48.95703125 C-73.5521957 33.5971688 -69.50791372 19.11385434 -58.70703125 7.76953125 C-43.49511199 -6.22451532 -18.14929779 -12.46533166 0 0 Z M-41.26953125 12.08203125 C-43.78723996 16.48802149 -44.96633016 21.20581024 -44.51953125 26.26953125 C-42.728788 28.0602745 -40.32527149 27.40170116 -37.94311523 27.40820312 C-36.80531616 27.40143555 -36.80531616 27.40143555 -35.64453125 27.39453125 C-34.87890869 27.39259766 -34.11328613 27.39066406 -33.32446289 27.38867188 C-27.351459 27.34350264 -21.45209962 26.98707732 -15.51953125 26.26953125 C-16.43996389 15.591558 -16.43996389 15.591558 -22.51953125 7.26953125 C-29.53787632 3.76035872 -36.20319204 6.83475135 -41.26953125 12.08203125 Z " fill="#E2077D" transform="translate(1616.51953125,1163.73046875)"/>
<path d="M0 0 C8.11820964 5.49701649 11.87786373 13.31179367 13.8046875 22.74609375 C14.4876375 26.34368076 14.7110449 29.18126052 13.8046875 32.74609375 C10.69846581 36.48650923 6.91135067 39.26630984 2.13986206 40.35299683 C-0.7903577 40.55212478 -3.63927816 40.5353552 -6.57421875 40.4296875 C-7.62689438 40.41978287 -8.67957001 40.40987823 -9.7641449 40.39967346 C-13.0968389 40.36076765 -16.4261294 40.27298801 -19.7578125 40.18359375 C-22.02924901 40.14844924 -24.30073761 40.11651577 -26.57226562 40.08789062 C-32.11442488 40.01108508 -37.6546255 39.89423892 -43.1953125 39.74609375 C-42.92112926 42.27481956 -42.63564923 44.80143305 -42.34375 47.328125 C-42.26825928 48.03521606 -42.19276855 48.74230713 -42.11499023 49.4708252 C-41.03402238 58.6379599 -37.87748564 68.04685578 -30.546875 74.109375 C-24.09083531 77.65873619 -17.38628087 77.65762495 -10.1953125 76.74609375 C-3.40200576 74.72646202 2.78304486 71.44119264 8.8046875 67.74609375 C9.64667057 68.84367882 10.47799421 69.94944692 11.3046875 71.05859375 C12.00078125 71.98091797 12.00078125 71.98091797 12.7109375 72.921875 C13.8046875 74.74609375 13.8046875 74.74609375 13.8046875 77.74609375 C11.51803424 79.79860831 9.2708708 81.61857137 6.8046875 83.43359375 C5.73492676 84.22890503 5.73492676 84.22890503 4.64355469 85.0402832 C-8.94744622 94.86741625 -21.35527162 99.92599616 -38.1953125 98.74609375 C-48.84747106 96.9800048 -56.936308 91.43830537 -63.1953125 82.74609375 C-71.89488725 68.97766109 -73.43331082 51.29850519 -70.50390625 35.48046875 C-68.63164813 27.74075736 -65.8809701 21.18592969 -61.1953125 14.74609375 C-60.74414062 14.11316406 -60.29296875 13.48023438 -59.828125 12.828125 C-46.72672801 -3.93722199 -18.84967557 -10.76645171 0 0 Z M-39.1953125 13.74609375 C-41.89747097 18.54024587 -42.63368897 22.26638781 -42.1953125 27.74609375 C-40.39505852 29.54634773 -37.96243399 28.87827769 -35.56811523 28.88476562 C-34.80571533 28.88025391 -34.04331543 28.87574219 -33.2578125 28.87109375 C-32.48961182 28.86916016 -31.72141113 28.86722656 -30.92993164 28.86523438 C-25.29580568 28.82255609 -19.78861788 28.45635475 -14.1953125 27.74609375 C-13.81035024 20.56013162 -14.57268346 14.92503804 -19.2578125 9.24609375 C-26.9699212 5.30799569 -33.91153169 7.08265907 -39.1953125 13.74609375 Z " fill="#E3077D" transform="translate(1917.1953125,1162.25390625)"/>
<path d="M0 0 C6.97502888 5.70427463 10.68023651 13.61582713 11.75 22.4375 C11.89050781 23.20191406 12.03101563 23.96632813 12.17578125 24.75390625 C12.46217238 27.28013248 12.39858293 28.9751296 11.75 31.4375 C8.61396299 35.14600191 4.85476765 37.95684201 0.08493042 39.04611206 C-2.84494396 39.24342188 -5.69442315 39.22674498 -8.62890625 39.12109375 C-9.68158188 39.11118912 -10.73425751 39.10128448 -11.8188324 39.09107971 C-15.1515264 39.0521739 -18.4808169 38.96439426 -21.8125 38.875 C-24.08393651 38.83985549 -26.35542511 38.80792202 -28.62695312 38.77929688 C-34.16911238 38.70249133 -39.709313 38.58564517 -45.25 38.4375 C-44.97581676 40.96622581 -44.69033673 43.4928393 -44.3984375 46.01953125 C-44.32294678 46.72662231 -44.24745605 47.43371338 -44.16967773 48.16223145 C-43.08870988 57.32936615 -39.93217314 66.73826203 -32.6015625 72.80078125 C-26.14552281 76.35014244 -19.44096837 76.3490312 -12.25 75.4375 C-5.45669326 73.41786827 0.72835736 70.13259889 6.75 66.4375 C8.4 68.7475 10.05 71.0575 11.75 73.4375 C8.29075459 81.89554511 -1.86537993 87.04114162 -9.5 91.375 C-10.16080566 91.75229248 -10.82161133 92.12958496 -11.50244141 92.51831055 C-21.93584486 98.2495005 -34.22712598 99.39422609 -45.75 96.25 C-55.9006546 92.57740135 -62.89241773 86.18607836 -68 76.6875 C-75.10321376 61.14482434 -75.57329986 42.93997428 -70.51171875 26.671875 C-68.62064278 21.82416321 -66.32619673 17.62826076 -63.25 13.4375 C-62.73695313 12.73109375 -62.22390625 12.0246875 -61.6953125 11.296875 C-47.88253812 -6.01866035 -19.01386891 -12.54559948 0 0 Z M-41.25 12.4375 C-43.76219249 17.04318623 -44.7194707 21.23831288 -45.25 26.4375 C-42.09263528 28.01618236 -38.7135308 27.58322419 -35.25 27.5625 C-34.48631104 27.56056641 -33.72262207 27.55863281 -32.93579102 27.55664062 C-27.31834228 27.51383649 -21.82673399 27.1456567 -16.25 26.4375 C-15.86503774 19.25153787 -16.62737096 13.61644429 -21.3125 7.9375 C-29.01715012 4.00321058 -35.97569376 5.76748598 -41.25 12.4375 Z " fill="#E3077D" transform="translate(850.25,1163.5625)"/>
<path d="M0 0 C7.35135761 5.08478895 10.74472043 11.67840566 12.89453125 20.21875 C13.14552438 21.67348569 13.37548546 23.13204131 13.58203125 24.59375 C13.79472656 25.63015625 13.79472656 25.63015625 14.01171875 26.6875 C14.26953125 28.71875 14.26953125 28.71875 13.58203125 32.59375 C10.40204536 36.25930464 6.68867331 39.11112009 1.91696167 40.20431519 C-1.0126147 40.39953399 -3.8628182 40.38297963 -6.796875 40.27734375 C-7.84955063 40.26743912 -8.90222626 40.25753448 -9.98680115 40.24732971 C-13.31949515 40.2084239 -16.64878565 40.12064426 -19.98046875 40.03125 C-22.25190526 39.99610549 -24.52339386 39.96417202 -26.79492188 39.93554688 C-32.33708113 39.85874133 -37.87728175 39.74189517 -43.41796875 39.59375 C-43.13097762 42.14423756 -42.83550408 44.69326714 -42.53515625 47.2421875 C-42.45547607 47.95818115 -42.3757959 48.6741748 -42.29370117 49.41186523 C-41.30819823 57.64953813 -38.69510961 65.07492894 -33.41796875 71.59375 C-26.04941611 77.15775914 -19.44445112 77.43298906 -10.41796875 76.59375 C-3.62353014 74.60939293 2.56886987 71.28364448 8.58203125 67.59375 C10.23203125 69.90375 11.88203125 72.21375 13.58203125 74.59375 C9.22196259 85.13252559 -6.77091187 92.84673175 -16.73046875 97.09375 C-27.77717103 100.69558597 -41.02278196 99.66157431 -51.41796875 94.59375 C-62.16539239 87.27476941 -68.12240455 76.77057207 -70.93920898 64.28295898 C-71.75519988 59.6995119 -71.64415049 55.11331144 -71.66796875 50.46875 C-71.68859375 49.48648437 -71.70921875 48.50421875 -71.73046875 47.4921875 C-71.80667799 33.01243132 -66.73065794 19.2097476 -56.6875 8.62890625 C-42.05030413 -4.49670313 -17.79725808 -10.35058628 0 0 Z M-38.41796875 11.59375 C-41.47644777 16.6716094 -42.91863365 21.72656263 -43.41796875 27.59375 C-40.26060403 29.17243236 -36.88149955 28.73947419 -33.41796875 28.71875 C-32.65427979 28.71681641 -31.89059082 28.71488281 -31.10375977 28.71289062 C-25.48631103 28.67008649 -19.99470274 28.3019067 -14.41796875 27.59375 C-14.10266135 21.70801183 -14.38887801 16.77992051 -17.41796875 11.59375 C-20.7477867 8.42249481 -23.41527339 7.33631945 -27.91796875 7.09375 C-32.4462541 7.3448986 -35.06759381 8.39920645 -38.41796875 11.59375 Z " fill="#E3077D" transform="translate(425.41796875,1162.40625)"/>
<path d="M0 0 C3.234375 1.92822266 3.234375 1.92822266 6 4 C5.94072327 4.6736409 5.88144653 5.3472818 5.82037354 6.04133606 C3.77350166 30.3483784 3.68856151 54.60962354 3.73925781 78.98901367 C3.75084126 84.6410105 3.74394222 90.29282124 3.73211288 95.94481182 C3.72490741 100.33447189 3.72717289 104.72408718 3.73236847 109.11374855 C3.73369887 111.20096675 3.73207868 113.28818905 3.72740936 115.37540245 C3.72234536 118.26429611 3.73004393 121.15287776 3.74121094 124.04174805 C3.73716248 124.89503693 3.73311401 125.74832581 3.72894287 126.62747192 C3.73458252 127.41275772 3.74022217 128.19804352 3.74603271 129.00712585 C3.74716379 130.02522858 3.74716379 130.02522858 3.74831772 131.06389904 C4.05528501 133.4252876 4.72609816 134.99149424 6 137 C8.85086326 138.35383563 8.85086326 138.35383563 12.125 139.25 C13.22070312 139.58515625 14.31640625 139.9203125 15.4453125 140.265625 C16.70988281 140.62914062 16.70988281 140.62914062 18 141 C18 143.97 18 146.94 18 150 C16.86461792 149.94670532 16.86461792 149.94670532 15.70629883 149.89233398 C-3.28587745 149.03755049 -22.00638332 149.0645315 -41 150 C-41 147.03 -41 144.06 -41 141 C-39.62714844 140.67128906 -39.62714844 140.67128906 -38.2265625 140.3359375 C-37.03804687 140.01882813 -35.84953125 139.70171875 -34.625 139.375 C-33.44164062 139.07335938 -32.25828125 138.77171875 -31.0390625 138.4609375 C-27.83947177 137.31098361 -27.83947177 137.31098361 -26.82424927 134.57089233 C-25.72307333 129.8002715 -25.73744335 125.28490267 -25.77294922 120.40478516 C-25.77265717 119.35052338 -25.77236511 118.2962616 -25.77206421 117.21005249 C-25.77345404 113.73630453 -25.78899914 110.26277285 -25.8046875 106.7890625 C-25.80841886 104.37625241 -25.81126525 101.96344081 -25.81326294 99.55062866 C-25.8208897 93.20814817 -25.84053009 86.86575965 -25.8626709 80.52331543 C-25.88314987 74.04810836 -25.89226905 67.57288639 -25.90234375 61.09765625 C-25.92377679 48.39839715 -25.95790129 35.69920623 -26 23 C-32.93 22.505 -32.93 22.505 -40 22 C-40 19.36 -40 16.72 -40 14 C-39.42781738 13.86013672 -38.85563477 13.72027344 -38.26611328 13.57617188 C-26.91404289 10.75685154 -16.14812186 7.79197698 -5.81298828 2.18945312 C-3.75 1.1484375 -3.75 1.1484375 0 0 Z " fill="#E2077C" transform="translate(263,1109)"/>
<path d="M0 0 C2.77545166 2.48304749 2.77545166 2.48304749 3.27697754 5.48110962 C3.10654938 7.25432838 3.10654938 7.25432838 2.93267822 9.06336975 C2.88037804 9.72533041 2.82807785 10.38729107 2.77419281 11.06931114 C2.65787897 12.52222124 2.52828486 13.97411321 2.38726044 15.4248333 C1.99966035 19.47656845 1.72836054 23.5363946 1.44927979 27.59681702 C1.38760998 28.46817637 1.32594017 29.33953573 1.26240158 30.23729992 C0.554107 40.80118927 0.51982943 51.36404063 0.50982666 61.94789124 C0.50750786 63.44468351 0.50750786 63.44468351 0.50514221 64.97171402 C0.49928314 70.05812773 0.50311035 75.14444753 0.51470947 80.23085022 C0.52633878 85.47120135 0.51935745 90.71135278 0.50756454 95.95169735 C0.50035706 100.03771494 0.50262472 104.12368445 0.50782013 108.20970345 C0.50914768 110.14537646 0.50754051 112.08105392 0.50286102 114.01672173 C0.49778874 116.69173374 0.50550513 119.36641019 0.5166626 122.04139709 C0.51261414 122.82713104 0.50856567 123.61286499 0.50439453 124.42240906 C0.53606753 128.51628516 0.74203495 131.8764796 2.77545166 135.48304749 C5.60990397 136.9515889 5.60990397 136.9515889 8.90045166 137.79554749 C9.99615479 138.1216803 11.09185791 138.44781311 12.22076416 138.78382874 C13.06381104 139.01457092 13.90685791 139.24531311 14.77545166 139.48304749 C14.77545166 142.45304749 14.77545166 145.42304749 14.77545166 148.48304749 C13.63221436 148.42975281 13.63221436 148.42975281 12.46588135 148.37538147 C-6.18213118 147.54104031 -24.57012054 147.52401244 -43.22454834 148.48304749 C-43.22454834 145.51304749 -43.22454834 142.54304749 -43.22454834 139.48304749 C-42.38150146 139.24070374 -41.53845459 138.99835999 -40.66986084 138.74867249 C-39.57415771 138.41351624 -38.47845459 138.07835999 -37.34954834 137.73304749 C-36.25900146 137.40820374 -35.16845459 137.08335999 -34.04486084 136.74867249 C-31.23859106 135.76693875 -31.23859106 135.76693875 -30.08682251 133.93922424 C-28.81848248 130.32637418 -28.75169765 126.70906752 -28.60784912 122.91859436 C-28.57025042 122.0774987 -28.53265171 121.23640305 -28.49391365 120.36981964 C-28.12455472 111.41889813 -28.07915891 102.47144223 -28.09173584 93.51429749 C-28.09105922 91.77418504 -28.09008624 90.0340727 -28.08883667 88.29396057 C-28.08737966 84.68738383 -28.08945097 81.0808322 -28.09417725 77.47425842 C-28.09990797 72.88087749 -28.09656177 68.28755459 -28.09060478 63.69417572 C-28.08697404 60.11658803 -28.08814868 56.5390139 -28.09073257 52.96142578 C-28.09139312 51.26795444 -28.09060445 49.5744818 -28.08825302 47.88101196 C-28.07863851 39.02597938 -28.23538319 30.29614556 -29.22454834 21.48304749 C-36.15454834 20.98804749 -36.15454834 20.98804749 -43.22454834 20.48304749 C-43.22454834 17.84304749 -43.22454834 15.20304749 -43.22454834 12.48304749 C-42.65236572 12.3431842 -42.08018311 12.20332092 -41.49066162 12.05921936 C-30.13859123 9.23989902 -19.3726702 6.27502446 -9.03753662 0.67250061 C-5.28473797 -1.22121932 -3.90064327 -1.83501378 0 0 Z " fill="#E3077D" transform="translate(204.22454833984375,1110.5169525146484)"/>
<path d="M0 0 C2.82305908 2.48181152 2.82305908 2.48181152 3.32458496 5.57861328 C3.1541568 7.41885071 3.1541568 7.41885071 2.98028564 9.29626465 C2.92798546 9.98168839 2.87568527 10.66711212 2.82180023 11.37330627 C2.70553779 12.87533138 2.57595221 14.37636929 2.43486786 15.87626648 C2.04851364 20.04541641 1.77698802 24.22236394 1.49688721 28.39978027 C1.4352174 29.29134575 1.37354759 30.18291122 1.310009 31.10149384 C0.61540342 41.67099074 0.56755256 52.23676576 0.55743408 62.82556152 C0.55511528 64.30557648 0.55511528 64.30557648 0.55274963 65.81549072 C0.54689746 70.83629849 0.55070594 75.85701104 0.56231689 80.87780762 C0.57395722 86.04974964 0.56695648 91.22148956 0.55517197 96.39342499 C0.5479652 100.42882842 0.55023163 104.46418316 0.55542755 108.49958801 C0.55675475 110.41014125 0.55514918 112.32069899 0.55046844 114.23124695 C0.5453962 116.87022888 0.55311198 119.50887067 0.56427002 122.14782715 C0.56022156 122.92263931 0.5561731 123.69745148 0.55200195 124.4957428 C0.58392828 128.56654914 0.80702586 131.89438186 2.82305908 135.48181152 C5.65751139 136.95035294 5.65751139 136.95035294 8.94805908 137.79431152 C10.04376221 138.12044434 11.13946533 138.44657715 12.26837158 138.78259277 C13.11141846 139.01333496 13.95446533 139.24407715 14.82305908 139.48181152 C14.82305908 142.45181152 14.82305908 145.42181152 14.82305908 148.48181152 C13.67982178 148.42851685 13.67982178 148.42851685 12.51348877 148.37414551 C-6.13452375 147.53980434 -24.52251312 147.52277647 -43.17694092 148.48181152 C-43.17694092 145.51181152 -43.17694092 142.54181152 -43.17694092 139.48181152 C-42.33389404 139.23946777 -41.49084717 138.99712402 -40.62225342 138.74743652 C-39.52655029 138.41228027 -38.43084717 138.07712402 -37.30194092 137.73181152 C-36.21139404 137.40696777 -35.12084717 137.08212402 -33.99725342 136.74743652 C-31.18277455 135.76693455 -31.18277455 135.76693455 -30.03921509 133.90513611 C-28.81500641 130.46463529 -28.70637553 127.05698107 -28.5602417 123.44299316 C-28.52264299 122.64945214 -28.48504429 121.85591112 -28.44630623 121.0383234 C-28.0562012 112.06174267 -28.03192952 103.08630866 -28.04412842 94.10290527 C-28.04345218 92.31173184 -28.0424795 90.5205585 -28.04122925 88.72938538 C-28.03977075 85.01428332 -28.04184874 81.29920563 -28.04656982 77.58410645 C-28.05230379 72.84364891 -28.04895333 68.10324756 -28.04299736 63.36279202 C-28.03937342 59.6797697 -28.04053812 55.99676059 -28.04312515 52.31373787 C-28.0437874 50.56558284 -28.04299082 48.81742658 -28.0406456 47.06927299 C-28.03808452 44.62789624 -28.04200625 42.18660937 -28.04754639 39.74523926 C-28.04552216 39.03911499 -28.04349792 38.33299072 -28.04141235 37.60546875 C-28.0556864 29.98679966 -28.0556864 29.98679966 -29.17694092 22.48181152 C-31.87877147 21.13089625 -34.29502298 21.14323094 -37.30194092 20.91931152 C-38.94549561 20.79362793 -38.94549561 20.79362793 -40.62225342 20.66540527 C-41.88682373 20.57452637 -41.88682373 20.57452637 -43.17694092 20.48181152 C-43.17694092 17.84181152 -43.17694092 15.20181152 -43.17694092 12.48181152 C-42.49816895 12.30641846 -41.81939697 12.13102539 -41.12005615 11.95031738 C-23.0278133 7.24345548 -23.0278133 7.24345548 -6.16522217 -0.62365723 C-3.17694092 -1.51818848 -3.17694092 -1.51818848 0 0 Z " fill="#E3077D" transform="translate(1013.1769409179688,1110.5181884765625)"/>
<path d="M0 0 C-1.98 9.9 -3.96 19.8 -6 30 C-9.3 30 -12.6 30 -16 30 C-16.23074219 28.91460938 -16.46148438 27.82921875 -16.69921875 26.7109375 C-17.02774544 25.26542007 -17.35722333 23.82011859 -17.6875 22.375 C-17.83638672 21.66214844 -17.98527344 20.94929688 -18.13867188 20.21484375 C-19.53182028 14.25981725 -21.78286391 10.19985986 -26.9765625 6.6484375 C-32.49543509 4.87984126 -38.28451279 5.15785173 -43.4375 7.6875 C-51.27937257 14.76431183 -53.96129249 22.96948385 -54.875 33.375 C-55.34596558 45.29405211 -53.83634689 55.95629213 -47 66 C-41.95254183 71.17816924 -36.22159493 73.91882191 -29 74.4375 C-22.29740381 74.3121113 -16.14401123 71.44870013 -10 69 C-9.03578125 68.61585937 -8.0715625 68.23171875 -7.078125 67.8359375 C-6.39234375 67.56007813 -5.7065625 67.28421875 -5 67 C-3.35 69.97 -1.7 72.94 0 76 C-15.70059993 88.72739662 -29.01576556 97.69504552 -50 96 C-61.17605926 93.80423306 -70.62887772 87.4826006 -77 78 C-85.21734499 63.39138668 -85.77128109 47.27851329 -81.91015625 31.1875 C-79.63025525 23.20295402 -75.83709248 16.70828352 -71 10 C-70.278125 8.96875 -69.55625 7.9375 -68.8125 6.875 C-51.33342007 -13.10109134 -21.64978037 -9.2784773 0 0 Z " fill="#E2077C" transform="translate(1838,1165)"/>
<path d="M0 0 C0.86971436 0.00088623 1.73942871 0.00177246 2.63549805 0.00268555 C13.34121778 0.19615649 22.682908 3.06023117 32.4375 7.375 C31.74771684 11.32671644 31.05385857 15.27769323 30.35620117 19.22802734 C30.11939934 20.57223073 29.88371575 21.91663161 29.64916992 23.26123047 C29.31201914 25.19289775 28.97052389 27.12380518 28.62890625 29.0546875 C28.42467041 30.21726074 28.22043457 31.37983398 28.01000977 32.57763672 C27.4375 35.375 27.4375 35.375 26.4375 37.375 C23.1375 37.375 19.8375 37.375 16.4375 37.375 C16.26734375 36.44558594 16.0971875 35.51617188 15.921875 34.55859375 C13.98837246 23.06923286 13.98837246 23.06923286 6.8125 14.4375 C1.11987702 12.64537795 -4.10559176 12.61902823 -9.8125 14.375 C-15.90683638 18.80724464 -19.37462912 24.54529874 -21.09375 31.8515625 C-21.71940964 36.55443747 -21.88511354 41.19652513 -21.9375 45.9375 C-21.95151855 46.81172607 -21.96553711 47.68595215 -21.97998047 48.58666992 C-21.90663368 58.61919395 -19.28196349 67.7535951 -12.5625 75.375 C-6.84579343 79.99022168 -1.48628724 81.73625037 5.8046875 81.6640625 C13.3204621 80.83888843 20.59916899 77.48333228 27.4375 74.375 C29.0875 77.015 30.7375 79.655 32.4375 82.375 C28.82619777 86.16213343 25.07193631 89.34079222 20.8125 92.375 C20.20220947 92.80997803 19.59191895 93.24495605 18.96313477 93.69311523 C7.04707391 101.98140102 -4.8057789 105.32071261 -19.34765625 102.9140625 C-30.35602798 99.94825712 -39.22483822 93.72364509 -45.03125 83.88671875 C-52.7532095 69.0937789 -53.3235819 51.88754874 -48.55859375 36.03515625 C-43.41332449 21.48236499 -34.61298852 10.37510175 -20.6875 3.6015625 C-13.72588046 0.86912683 -7.41640804 -0.01371404 0 0 Z " fill="#E3077D" transform="translate(1438.5625,1157.625)"/>
<path d="M0 0 C3.3 0 6.6 0 10 0 C8.515 14.85 8.515 14.85 7 30 C16.24 30 25.48 30 35 30 C36 33 36 33 34.78515625 35.69921875 C33.19010417 38.46614583 31.59505208 41.23307292 30 44 C22.41 43.67 14.82 43.34 7 43 C6.95392466 50.08024343 6.91414742 57.15996013 6.89013672 64.24023438 C6.88012006 66.64552581 6.86650291 69.0508052 6.84912109 71.45605469 C6.8246816 74.92646267 6.81347321 78.39670872 6.8046875 81.8671875 C6.79436493 82.93113739 6.78404236 83.99508728 6.77340698 85.09127808 C6.7278903 96.71258603 6.7278903 96.71258603 11.1875 107.125 C14.79576086 109.53050724 16.7291562 109.52448959 21 109 C23.01151741 108.36893571 25.01363702 107.70626239 27 107 C28.32 107 29.64 107 31 107 C31.99 109.64 32.98 112.28 34 115 C6.97609903 130.83762048 6.97609903 130.83762048 -7.09375 127.50390625 C-12.50331998 125.40413895 -15.87307718 121.9318677 -18.75 117 C-21.08987245 111.38430612 -21.14122236 106.19334055 -21.09375 100.203125 C-21.09016479 99.33302795 -21.08657959 98.46293091 -21.08288574 97.56646729 C-21.01764736 86.62550658 -20.75770512 75.6877663 -20.5 64.75 C-20.45161609 62.6250047 -20.40343799 60.5000047 -20.35546875 58.375 C-20.23934039 53.24994301 -20.1204666 48.12495677 -20 43 C-24.62 43 -29.24 43 -34 43 C-34 40.03 -34 37.06 -34 34 C-32.76636719 33.41605469 -32.76636719 33.41605469 -31.5078125 32.8203125 C-21.65539059 27.88272461 -14.05033347 22.25248066 -8.2890625 12.578125 C-7.82387207 11.80388184 -7.35868164 11.02963867 -6.87939453 10.23193359 C-5.97599801 8.68832473 -5.10792954 7.12336151 -4.28076172 5.53759766 C-3.03125 3.3671875 -3.03125 3.3671875 0 0 Z " fill="#E3077D" transform="translate(1066,1132)"/>
<path d="M0 0 C4.34482759 1.34482759 4.34482759 1.34482759 6 3 C6.01922489 4.51305461 5.96659126 6.02708371 5.88549805 7.53808594 C5.83802933 8.51183167 5.79056061 9.48557739 5.74165344 10.48883057 C5.68639999 11.55986023 5.63114655 12.63088989 5.57421875 13.734375 C4.96817812 27.00475083 4.8138155 40.25419671 4.81469727 53.53710938 C4.81246064 57.31651292 4.79406428 61.09564581 4.77539062 64.875 C4.77246431 67.29687402 4.77047443 69.7187494 4.76953125 72.140625 C4.76234573 73.26132385 4.75516022 74.38202271 4.74775696 75.53668213 C4.7523719 77.09682037 4.7523719 77.09682037 4.75708008 78.68847656 C4.75565506 79.59680237 4.75423004 80.50512817 4.75276184 81.440979 C5.03122594 84.3232019 5.67437444 86.42745751 7 89 C9.83445231 90.46854141 9.83445231 90.46854141 13.125 91.3125 C14.22070312 91.63863281 15.31640625 91.96476562 16.4453125 92.30078125 C17.28835938 92.53152344 18.13140625 92.76226563 19 93 C19 95.97 19 98.94 19 102 C18.34443115 101.96447021 17.6888623 101.92894043 17.01342773 101.89233398 C-1.74520241 100.92292501 -20.25015605 101.16486404 -39 102 C-39 99.03 -39 96.06 -39 93 C-38.15695312 92.75765625 -37.31390625 92.5153125 -36.4453125 92.265625 C-34.80175781 91.76289062 -34.80175781 91.76289062 -33.125 91.25 C-31.48917969 90.76273438 -31.48917969 90.76273438 -29.8203125 90.265625 C-26.9754096 89.28531953 -26.9754096 89.28531953 -25.83990479 87.29153442 C-24.79382725 84.43749343 -24.74581492 82.11075588 -24.74121094 79.06982422 C-24.73175446 77.2780928 -24.73175446 77.2780928 -24.72210693 75.45016479 C-24.7261554 74.16465729 -24.73020386 72.87914978 -24.734375 71.5546875 C-24.73302734 70.21998016 -24.73108596 68.88527329 -24.72857666 67.55056763 C-24.72563219 64.75811066 -24.72990251 61.96578189 -24.73925781 59.17333984 C-24.75067424 55.59082322 -24.744075 52.00860554 -24.73211288 48.42609978 C-24.72316023 45.01060484 -24.72942186 41.59519094 -24.734375 38.1796875 C-24.73032654 36.89013153 -24.72627808 35.60057556 -24.72210693 34.27194214 C-24.72841125 33.08375885 -24.73471558 31.89557556 -24.74121094 30.67138672 C-24.74280212 29.62199921 -24.74439331 28.57261169 -24.74603271 27.49142456 C-24.75266687 24.82616451 -24.75266687 24.82616451 -27 23 C-29.89223503 22.53603307 -29.89223503 22.53603307 -33.125 22.375 C-34.22070312 22.30023437 -35.31640625 22.22546875 -36.4453125 22.1484375 C-37.28835938 22.09945313 -38.13140625 22.05046875 -39 22 C-39 19.36 -39 16.72 -39 14 C-37.82566406 13.72027344 -36.65132813 13.44054688 -35.44140625 13.15234375 C-23.39193489 10.1865719 -10.44560584 6.96373723 0 0 Z " fill="#E3077D" transform="translate(326,1157)"/>
<path d="M0 0 C3.1875 0.875 3.1875 0.875 6 2 C6.85006815 5.53898666 7.02006494 8.41175679 6.59765625 12.01953125 C5.95064925 18.23931445 5.65632575 24.43925935 5.4375 30.6875 C5.3748999 32.47184448 5.3748999 32.47184448 5.31103516 34.29223633 C5.00541162 43.92436746 4.89192743 53.55103611 4.875 63.1875 C4.87111771 64.20497818 4.87111771 64.20497818 4.86715698 65.24301147 C4.24187262 77.4147696 4.24187262 77.4147696 7 89 C8.99291777 89.78344256 11.02051823 90.48016365 13.0625 91.125 C14.16722656 91.47820312 15.27195312 91.83140625 16.41015625 92.1953125 C17.26480469 92.46085937 18.11945313 92.72640625 19 93 C19 95.97 19 98.94 19 102 C18.37996094 101.96447021 17.75992187 101.92894043 17.12109375 101.89233398 C-1.6661884 100.86853649 -20.217375 101.19907778 -39 102 C-39 99.03 -39 96.06 -39 93 C-37.60974609 92.60167969 -37.60974609 92.60167969 -36.19140625 92.1953125 C-34.99386719 91.84210938 -33.79632812 91.48890625 -32.5625 91.125 C-31.36753906 90.77695313 -30.17257812 90.42890625 -28.94140625 90.0703125 C-25.88308969 89.3391709 -25.88308969 89.3391709 -25 87 C-23.35873876 76.4126363 -23.81386061 65.4484256 -23.81469727 54.77099609 C-23.81249059 51.61152054 -23.79422287 48.45238373 -23.77539062 45.29296875 C-23.77245953 43.27083451 -23.77047284 41.24869864 -23.76953125 39.2265625 C-23.75875298 37.82019028 -23.75875298 37.82019028 -23.74775696 36.38540649 C-23.75083359 35.50363739 -23.75391022 34.62186829 -23.75708008 33.71337891 C-23.75494255 32.56187851 -23.75494255 32.56187851 -23.75276184 31.38711548 C-23.98210847 28.33097117 -23.98210847 28.33097117 -26 23 C-30.29 22.67 -34.58 22.34 -39 22 C-39 19.36 -39 16.72 -39 14 C-37.741875 13.72027344 -36.48375 13.44054688 -35.1875 13.15234375 C-22.92748649 10.31977907 -10.59438383 7.06292255 0 0 Z " fill="#E3077D" transform="translate(1515,1157)"/>
<path d="M0 0 C4.30938727 2.24797041 6.74917819 5.03925337 8.9296875 9.31640625 C10.32281861 14.68991198 10.03666008 19.22455585 7.9296875 24.31640625 C5.61715762 28.00505427 3.02444816 30.71915918 -1.0703125 32.31640625 C-6.61063753 32.98001064 -11.50285394 33.0721452 -16.5703125 30.62890625 C-20.51717275 26.97806052 -23.65540487 23.8261167 -24.30859375 18.30078125 C-24.50563239 12.36888121 -23.57085216 9.14147443 -20.0703125 4.31640625 C-14.40388298 -0.93540647 -7.45645148 -2.46203587 0 0 Z " fill="#E2077C" transform="translate(324.0703125,1111.68359375)"/>
<path d="M0 0 C4.12593192 2.87855716 7.06537651 6.00862953 8.6875 10.875 C9.25134129 16.56762838 8.99469906 21.02444138 5.6875 25.875 C1.27415974 30.21772681 -1.87767838 32.04134128 -8.0625 32.1875 C-13.33977204 32.13068726 -16.36174942 31.62821305 -20.3125 27.875 C-23.92188411 24.0756483 -24.62181409 21.02881391 -24.8125 15.9375 C-24.59783932 10.34939769 -23.84704993 7.22521529 -20.3125 2.875 C-14.0200803 -2.03308737 -7.53271481 -2.5582805 0 0 Z " fill="#E2077C" transform="translate(1514.3125,1112.125)"/>
<path d="M0 0 C4.63919634 1.09946272 8.34849679 3.35663471 11.0625 7.3125 C12.09445385 11.56744016 11.53105215 15.0722149 10 19.125 C6.57812399 22.9884084 2.99834427 25.04679588 -2.125 25.75 C-5.4539748 25.23215948 -6.7110346 24.85703188 -8.9375 22.3125 C-10.80135765 16.98719244 -11.54818056 12.84921442 -9.9375 7.3125 C-7.33917854 2.64631025 -5.45824997 0.43319444 0 0 Z " fill="#006A37" transform="translate(185.9375,58.6875)"/>
<path d="M0 0 C3.2578125 1.59765625 3.2578125 1.59765625 6 4 C7.26951283 9.11808101 7.04075357 13.8810762 6 19 C3.77916063 21.9665624 1.56663546 23.11480243 -2 24 C-6.97447266 24.09948945 -10.252577 22.18633906 -14 19 C-14.46211865 16.10405649 -14.584747 14.09502976 -14.375 11.25 C-14.33439453 10.20392578 -14.33439453 10.20392578 -14.29296875 9.13671875 C-14.22254783 7.42314295 -14.11492913 5.71116698 -14 4 C-12.61518672 3.12808053 -11.21654754 2.27809616 -9.8125 1.4375 C-8.64654297 0.72400391 -8.64654297 0.72400391 -7.45703125 -0.00390625 C-4.36645315 -1.25684332 -3.13514025 -1.09896418 0 0 Z " fill="#006B38" transform="translate(284,1)"/>
<path d="M0 0 C3.00207268 0.60479712 3.98326266 1.1660131 5.86328125 3.5390625 C8.01249261 7.45172933 8.65781605 11.17354645 7.67578125 15.5390625 C6.58549129 18.87843226 5.39203806 21.26485176 2.67578125 23.5390625 C-1.21487487 24.65317842 -4.42915789 24.62687229 -8.32421875 23.5390625 C-11.54711383 20.99170874 -12.79877137 17.8198405 -14.32421875 14.1015625 C-14.32421875 9.60334969 -12.74048417 5.43320889 -10.05078125 1.8359375 C-6.96388958 -0.48272321 -3.72939884 -0.10867122 0 0 Z " fill="#006B38" transform="translate(422.32421875,113.4609375)"/>
<path d="M0 0 C10.77493398 -0.56489945 10.77493398 -0.56489945 15 3 C17.56377118 6.84565677 17.5099662 8.41030416 17 13 C15.54129466 16.48666154 13.82143433 19.67588234 12 23 C8.04 23 4.08 23 0 23 C-3.28147287 17.25742248 -4.84116541 13.62417762 -4 7 C-2.87225945 4.43827901 -1.56319797 2.34479695 0 0 Z " fill="#006A37" transform="translate(129,114)"/>
<path d="M0 0 C4.05221404 1.11785215 6.41907053 2.27673118 9.625 5 C10.89408429 10.11635335 10.67208237 14.88344613 9.625 20 C6.76204555 23.67996064 3.33889518 24.60141973 -1.0625 25.625 C-5.15277856 24.51951931 -7.33069549 21.49186359 -9.6875 18.125 C-11.04444843 13.93079577 -10.98299234 10.30718354 -9.125 6.3125 C-8.5475 5.549375 -7.97 4.78625 -7.375 4 C-6.7975 3.21625 -6.22 2.4325 -5.625 1.625 C-3.375 0 -3.375 0 0 0 Z " fill="#006A37" transform="translate(369.375,57)"/>
</svg>
